%FSTAX44Y44*%
%MOMM*%
%SFA1B1*%

%IPPOS*%
%ADD77C,0.499999*%
%ADD81C,0.299999*%
%ADD82C,3.999992*%
%ADD83O,3.581393X1.899996*%
%ADD84O,3.047994X1.523997*%
%ADD85O,1.523997X3.047994*%
%ADD86C,0.799998*%
%LNcas_to_modbus-1*%
%LPD*%
G36*
X01019999Y0D02*
X0D01*
Y00679999*
X01019999*
Y0*
G37*
%LNcas_to_modbus-2*%
%LPC*%
G36*
X00809999Y0065311D02*
X0080549Y00652666D01*
X00801155Y00651351*
X00797159Y00649215*
X00793657Y00646341*
X00790783Y00642839*
X00788647Y00638843*
X00787332Y00634508*
X00786888Y00629999*
X00787332Y0062549*
X00788647Y00621155*
X00790783Y00617159*
X00793657Y00613657*
X00797159Y00610783*
X00801155Y00608647*
X0080549Y00607332*
X00809999Y00606888*
X00814508Y00607332*
X00818843Y00608647*
X00822839Y00610783*
X00826341Y00613657*
X00829215Y00617159*
X00831351Y00621155*
X00832666Y0062549*
X0083311Y00629999*
X00832666Y00634508*
X00831351Y00638843*
X00829215Y00642839*
X00826341Y00646341*
X00822839Y00649215*
X00818843Y00651351*
X00814508Y00652666*
X00809999Y0065311*
G37*
G36*
X00209999D02*
X0020549Y00652666D01*
X00201155Y00651351*
X00197159Y00649215*
X00193657Y00646341*
X00190783Y00642839*
X00188647Y00638843*
X00187332Y00634508*
X00186888Y00629999*
X00187332Y0062549*
X00188647Y00621155*
X00190783Y00617159*
X00193657Y00613657*
X00197159Y00610783*
X00201155Y00608647*
X0020549Y00607332*
X00209999Y00606888*
X00214508Y00607332*
X00218843Y00608647*
X00222839Y00610783*
X00226341Y00613657*
X00229215Y00617159*
X00231351Y00621155*
X00232666Y0062549*
X0023311Y00629999*
X00232666Y00634508*
X00231351Y00638843*
X00229215Y00642839*
X00226341Y00646341*
X00222839Y00649215*
X00218843Y00651351*
X00214508Y00652666*
X00209999Y0065311*
G37*
G36*
X00069856Y00500143D02*
X00062719D01*
Y00489269*
X00081833*
X00081586Y00491142*
X00080373Y00494071*
X00078443Y00496586*
X00075928Y00498516*
X00072999Y00499729*
X00069856Y00500143*
G37*
G36*
X00060179D02*
X00053042D01*
X00049899Y00499729*
X0004697Y00498516*
X00044455Y00496586*
X00042525Y00494071*
X00041312Y00491142*
X00041065Y00489269*
X00060179*
Y00500143*
G37*
G36*
X00961396Y00499023D02*
X00954259D01*
Y00488149*
X00973373*
X00973126Y00490022*
X00971913Y00492951*
X00969983Y00495466*
X00967468Y00497396*
X00964539Y00498609*
X00961396Y00499023*
G37*
G36*
X00951719D02*
X00944582D01*
X00941439Y00498609*
X0093851Y00497396*
X00935995Y00495466*
X00934065Y00492951*
X00932852Y00490022*
X00932606Y00488149*
X00951719*
Y00499023*
G37*
G36*
X00081833Y00486729D02*
X00062719D01*
Y00475855*
X00069856*
X00072999Y00476269*
X00075928Y00477482*
X00078443Y00479412*
X00080373Y00481927*
X00081586Y00484856*
X00081833Y00486729*
G37*
G36*
X00060179D02*
X00041065D01*
X00041312Y00484856*
X00042525Y00481927*
X00044455Y00479412*
X0004697Y00477482*
X00049899Y00476269*
X00053042Y00475855*
X00060179*
Y00486729*
G37*
G36*
X00973373Y00485609D02*
X00954259D01*
Y00474735*
X00961396*
X00964539Y00475149*
X00967468Y00476362*
X00969983Y00478292*
X00971913Y00480807*
X00973126Y00483736*
X00973373Y00485609*
G37*
G36*
X00951719D02*
X00932606D01*
X00932852Y00483736*
X00934065Y00480807*
X00935995Y00478292*
X0093851Y00476362*
X00941439Y00475149*
X00944582Y00474735*
X00951719*
Y00485609*
G37*
G36*
X00407416Y00595069D02*
X00405588Y00594829D01*
X00403885Y00594123*
X00402423Y00593001*
X004013Y00591539*
X00400595Y00589836*
X00400355Y0058801*
X00400595Y00586182*
X004013Y00584479*
X00402423Y00583017*
X00403885Y00581894*
X00405588Y00581189*
X00407416Y00580949*
X00409242Y00581189*
X00410945Y00581894*
X00412407Y00583017*
X00412718Y00583421*
X00590088*
X0083488Y00338629*
X00834287Y00337426*
X00833628Y00337513*
X008318Y00337273*
X00830097Y00336567*
X00828635Y00335445*
X00827513Y00333983*
X00826807Y0033228*
X00826567Y00330454*
X00826633Y00329948*
X00808866Y00312181*
X00622522*
X00622211Y00312585*
X00620749Y00313707*
X00619046Y00314413*
X0061722Y00314653*
X00615457Y00314421*
X00615127Y00314429*
X00614187Y00315057*
Y00316615*
X00621659Y00324087*
X007379*
X00738211Y00323683*
X00739673Y0032256*
X00741376Y00321855*
X00743204Y00321615*
X0074503Y00321855*
X00746733Y0032256*
X00748195Y00323683*
X00749317Y00325145*
X00750023Y00326848*
X00750263Y00328676*
X00750023Y00330502*
X00749317Y00332205*
X00748195Y00333667*
X00746733Y00334789*
X0074503Y00335495*
X00743204Y00335735*
X00741376Y00335495*
X00739673Y00334789*
X00738211Y00333667*
X007379Y00333263*
X0061976*
X00618003Y00332914*
X00616515Y00331919*
X0061028Y00325685*
X00609107Y00326171*
Y00416183*
X00644908Y00451983*
X00645414Y00451917*
X0064724Y00452157*
X00648943Y00452863*
X00650405Y00453985*
X00651527Y00455447*
X00652233Y0045715*
X00652473Y00458978*
X00652233Y00460804*
X00651527Y00462507*
X00650405Y00463969*
X00648943Y00465092*
X0064724Y00465797*
X00645414Y00466037*
X00643586Y00465797*
X00641883Y00465092*
X00640421Y00463969*
X00639299Y00462507*
X00638593Y00460804*
X00638353Y00458978*
X00638419Y00458472*
X00601275Y00421327*
X00408629Y00228682*
X00407389Y00229633*
X00405686Y00230339*
X0040386Y00230579*
X00402032Y00230339*
X00400329Y00229633*
X00398867Y00228511*
X00397745Y00227049*
X00397039Y00225346*
X00396799Y0022352*
X00397039Y00221692*
X00397745Y00219989*
X00398647Y00218812*
X00398493Y0021775*
X00398304Y00217357*
X00397281Y00216934*
X00395819Y00215811*
X00394696Y00214349*
X00393991Y00212646*
X00393766Y00210938*
X00393736Y00210807*
X00392593Y00209883*
X00391668Y00210005*
X00389905Y00209773*
X00389575Y00209781*
X00388635Y00210409*
Y00261983*
X00548664Y00422011*
X00549169Y00421945*
X00550996Y00422185*
X00552699Y00422891*
X00554161Y00424013*
X00555283Y00425475*
X00555989Y00427178*
X00556229Y00429006*
X00555989Y00430832*
X00555283Y00432535*
X00554161Y00433997*
X00552699Y0043512*
X00550996Y00435825*
X00549169Y00436065*
X00547341Y00435825*
X00545639Y0043512*
X00544176Y00433997*
X00543054Y00432535*
X00542349Y00430832*
X00542108Y00429006*
X00542175Y004285*
X00380803Y00267128*
X00379808Y00265639*
X00379459Y00263883*
Y00190722*
X00379055Y00190411*
X00377933Y00188949*
X00377227Y00187246*
X00376987Y0018542*
X00377227Y00183592*
X00377933Y00181889*
X00379055Y00180427*
X00380517Y00179304*
X0038222Y00178599*
X00384048Y00178359*
X00385874Y00178599*
X00387577Y00179304*
X00389039Y00180427*
X0038935Y00180831*
X00398148*
X00436429Y00142551*
X00437917Y00141556*
X00439674Y00141207*
X00554228*
X00555983Y00141556*
X00557471Y00142551*
X00586426Y00171505*
X00586931Y00171439*
X00588758Y00171679*
X00590461Y00172385*
X00591924Y00173507*
X00593045Y00174969*
X00593751Y00176672*
X00593991Y00178499*
X00593751Y00180326*
X00593045Y00182029*
X00591924Y00183492*
X00590461Y00184614*
X00588758Y00185319*
X00586931Y00185559*
X00585104Y00185319*
X00583401Y00184614*
X00581939Y00183492*
X00580817Y00182029*
X00580111Y00180326*
X00579871Y00178499*
X00579937Y00177994*
X00552326Y00150383*
X00516356*
X00515729Y00151653*
X00516355Y00152469*
X00517061Y00154172*
X00517301Y00155999*
X00517235Y00156504*
X00543247Y00182517*
X00544242Y00184006*
X00544591Y00185761*
Y00211559*
X00544995Y00211869*
X00546118Y00213331*
X00546823Y00215034*
X00547063Y00216861*
X00546823Y00218688*
X00546118Y00220391*
X00544995Y00221854*
X00543533Y00222976*
X00542874Y00223249*
X00543126Y00224519*
X0058407*
X00611175Y00197415*
X00612663Y0019642*
X00614419Y00196071*
X00619276*
X00619587Y00195667*
X00621049Y00194544*
X00621297Y00194442*
X00621743Y00192882*
X00621502Y00192547*
X00608706*
X00604655Y00196598*
X00604721Y00197104*
X00604481Y0019893*
X00603776Y00200633*
X00602653Y00202095*
X00601191Y00203217*
X00599488Y00203923*
X00597662Y00204163*
X00595834Y00203923*
X00594131Y00203217*
X00592669Y00202095*
X00591547Y00200633*
X00590841Y0019893*
X00590601Y00197104*
X00590841Y00195276*
X00591547Y00193573*
X00592669Y00192111*
X00594131Y00190988*
X00595834Y00190283*
X00597662Y00190043*
X00598166Y00190109*
X00603561Y00184715*
X00605049Y0018372*
X00606806Y00183371*
X00624586*
X00626341Y0018372*
X00627829Y00184715*
X00635323Y00192209*
X00636318Y00193697*
X00636667Y00195453*
Y00229741*
X00636318Y00231497*
X00635323Y00232985*
X00609107Y00259201*
Y00267109*
X00610047Y00267737*
X00610377Y00267745*
X0061214Y00267513*
X00613966Y00267753*
X00615669Y00268458*
X00617131Y00269581*
X00618254Y00271043*
X00618959Y00272746*
X00619199Y00274574*
X00618959Y002764*
X00618254Y00278103*
X00617131Y00279565*
X00615669Y00280687*
X00614187Y00281301*
Y00300129*
X00615127Y00300757*
X00615457Y00300765*
X0061722Y00300533*
X00619046Y00300773*
X00620749Y00301478*
X00622211Y00302601*
X00622522Y00303005*
X00810768*
X00812523Y00303354*
X00814011Y00304349*
X00833122Y00323459*
X00833628Y00323393*
X00835389Y00323625*
X00835719Y00323617*
X00836659Y00322989*
Y00250839*
X0082321Y00237391*
X00822706Y00237457*
X008222Y00237391*
X00813777Y00245813*
X00812289Y00246808*
X00810533Y00247157*
X00795345*
X00794783Y00248296*
X00794895Y00248443*
X00795966Y00251027*
X00796331Y00253799*
X00795966Y00256571*
X00794895Y00259155*
X00793193Y00261373*
X00790975Y00263075*
X00788391Y00264145*
X00785619Y00264511*
X00770379*
X00767607Y00264145*
X00765023Y00263075*
X00762805Y00261373*
X00761102Y00259155*
X00760032Y00256571*
X00759739Y00254341*
X00758879Y00253443*
X00758458Y00253253*
X0071554*
X00715058Y00253453*
X00713232Y00253693*
X00711404Y00253453*
X00709701Y00252748*
X00708239Y00251625*
X00707116Y00250163*
X00706411Y0024846*
X00706171Y00246634*
X00706411Y00244806*
X00707116Y00243103*
X00708239Y00241641*
X00709701Y00240519*
X00711404Y00239813*
X00713232Y00239573*
X00715058Y00239813*
X00716761Y00240519*
X00718223Y00241641*
X00719345Y00243103*
X00719749Y00244077*
X00744117*
X00744823Y00243021*
X00744705Y00242738*
X00744648Y00242301*
X00751078*
Y00241031*
X00752348*
Y00234602*
X00752784Y00234659*
X00754375Y00235318*
X00755741Y00236366*
X0075679Y00237733*
X00757449Y00239323*
X00757673Y00241031*
X00757617Y0024146*
X0075882Y00242054*
X00761549Y00239325*
X00763037Y0023833*
X00763635Y00238211*
X00763952Y00236853*
X00762805Y00235973*
X00761102Y00233755*
X00760032Y00231171*
X00759667Y00228399*
X00760032Y00225626*
X00761102Y00223043*
X00762805Y00220825*
X00765023Y00219122*
X00767607Y00218052*
X00770379Y00217687*
X00785619*
X00788391Y00218052*
X00790975Y00219122*
X00793193Y00220825*
X00794895Y00223043*
X00795966Y00225626*
X00796331Y00228399*
X00795966Y00231171*
X00794895Y00233755*
X00793193Y00235973*
X00792232Y00236711*
X00792663Y00237981*
X00808632*
X00815711Y00230902*
X00815645Y00230397*
X00815885Y00228569*
X0081659Y00226867*
X00817713Y00225404*
X00819175Y00224282*
X00820878Y00223577*
X00822706Y00223336*
X00824532Y00223577*
X00826235Y00224282*
X00827697Y00225404*
X00828819Y00226867*
X00829525Y00228569*
X00829765Y00230397*
X00829699Y00230902*
X00844491Y00245694*
X00845486Y00247183*
X00845835Y00248939*
Y00338751*
X00845486Y00340507*
X00844491Y00341995*
X00595233Y00591253*
X00593745Y00592248*
X00591989Y00592597*
X00412718*
X00412407Y00593001*
X00410945Y00594123*
X00409242Y00594829*
X00407416Y00595069*
G37*
G36*
X00961396Y00449487D02*
X00944582D01*
X00941319Y00449057*
X00938278Y00447798*
X00935667Y00445794*
X00933663Y00443183*
X00932404Y00440142*
X00931974Y0043688*
X00932404Y00433616*
X00933663Y00430575*
X00935667Y00427964*
X00938278Y0042596*
X00941319Y00424701*
X00944582Y00424271*
X00961396*
X00964659Y00424701*
X009677Y0042596*
X00970311Y00427964*
X00972315Y00430575*
X00973575Y00433616*
X00974004Y0043688*
X00973575Y00440142*
X00972315Y00443183*
X00970311Y00445794*
X009677Y00447798*
X00964659Y00449057*
X00961396Y00449487*
G37*
G36*
X00069856Y00550607D02*
X00053042D01*
X00049779Y00550177*
X00046738Y00548918*
X00044127Y00546914*
X00042124Y00544303*
X00040864Y00541262*
X00040434Y00537999*
X00040864Y00534736*
X00042124Y00531695*
X00044127Y00529084*
X00046738Y0052708*
X00049779Y00525821*
X00053042Y00525391*
X00069856*
X00073119Y00525821*
X0007616Y0052708*
X00078771Y00529084*
X00080775Y00531695*
X00081063Y00532391*
X001978*
X00307522Y00422669*
X00307631Y00421844*
X00308336Y00420141*
X00309459Y00418679*
X00310921Y00417556*
X00312624Y00416851*
X00314452Y00416611*
X00316278Y00416851*
X00317981Y00417556*
X00319443Y00418679*
X00320565Y00420141*
X00321271Y00421844*
X00321511Y00423672*
X00321271Y00425498*
X00320565Y00427201*
X00319443Y00428663*
X00317981Y00429785*
X00316278Y00430491*
X00315453Y004306*
X00204089Y00541964*
X00202269Y0054318*
X00200123Y00543607*
X00081063*
X00080775Y00544303*
X00078771Y00546914*
X0007616Y00548918*
X00073119Y00550177*
X00069856Y00550607*
G37*
G36*
X0023368Y0044506D02*
X00231852Y00444819D01*
X00230149Y00444114*
X00228687Y00442992*
X00227564Y00441529*
X00226859Y00439826*
X00226619Y00437999*
X00226859Y00436172*
X00227564Y00434469*
X00228687Y00433007*
X00229091Y00432696*
Y00406622*
X00228687Y00406311*
X00227564Y00404849*
X00226859Y00403146*
X00226619Y0040132*
X00226859Y00399492*
X00227564Y00397789*
X00228687Y00396327*
X00230149Y00395204*
X00231852Y00394499*
X0023368Y00394259*
X00235506Y00394499*
X00237209Y00395204*
X00238671Y00396327*
X00239794Y00397789*
X00240499Y00399492*
X00240739Y0040132*
X00240499Y00403146*
X00239794Y00404849*
X00238671Y00406311*
X00238267Y00406622*
Y00432696*
X00238671Y00433007*
X00239794Y00434469*
X00240499Y00436172*
X00240739Y00437999*
X00240499Y00439826*
X00239794Y00441529*
X00238671Y00442992*
X00237209Y00444114*
X00235506Y00444819*
X0023368Y0044506*
G37*
G36*
X00961396Y00399487D02*
X00944582D01*
X00941319Y00399057*
X00938278Y00397798*
X00935667Y00395794*
X00933663Y00393183*
X00932404Y00390142*
X00931974Y00386879*
X00932404Y00383616*
X00933663Y00380575*
X00935667Y00377964*
X00938278Y0037596*
X00941319Y00374701*
X00944582Y00374271*
X00961396*
X00964659Y00374701*
X009677Y0037596*
X00970311Y00377964*
X00972315Y00380575*
X00973575Y00383616*
X00974004Y00386879*
X00973575Y00390142*
X00972315Y00393183*
X00970311Y00395794*
X009677Y00397798*
X00964659Y00399057*
X00961396Y00399487*
G37*
G36*
X00703326Y00365707D02*
X00701498Y00365467D01*
X00699795Y00364761*
X00698333Y00363639*
X00698022Y00363235*
X00643636*
X00641879Y00362886*
X00640391Y00361891*
X00632202Y00353703*
X00631698Y00353769*
X0062987Y00353529*
X00628167Y00352824*
X00626705Y00351701*
X00625582Y00350239*
X00624877Y00348536*
X00624637Y0034671*
X00624877Y00344882*
X00625582Y00343179*
X00626705Y00341717*
X00628167Y00340595*
X0062987Y00339889*
X00631698Y00339649*
X00633524Y00339889*
X00635227Y00340595*
X00636689Y00341717*
X00637811Y00343179*
X00638517Y00344882*
X00638757Y0034671*
X00638691Y00347214*
X00645535Y00354059*
X00698022*
X00698333Y00353655*
X00699795Y00352532*
X00701498Y00351827*
X00703326Y00351587*
X00705152Y00351827*
X00706855Y00352532*
X00708317Y00353655*
X0070944Y00355117*
X00710145Y0035682*
X00710385Y00358648*
X00710145Y00360474*
X0070944Y00362177*
X00708317Y00363639*
X00706855Y00364761*
X00705152Y00365467*
X00703326Y00365707*
G37*
G36*
X00069856Y00341628D02*
X00053042D01*
X00049779Y00341199*
X00046738Y00339939*
X00044127Y00337936*
X00042124Y00335324*
X00040864Y00332284*
X00040434Y0032902*
X00040864Y00325757*
X00042124Y00322717*
X00044127Y00320105*
X00046738Y00318102*
X00049779Y00316842*
X00053042Y00316413*
X00069856*
X00073119Y00316842*
X0007616Y00318102*
X00078771Y00320105*
X00080775Y00322717*
X00082035Y00325757*
X00082464Y0032902*
X00082035Y00332284*
X00080775Y00335324*
X00078771Y00337936*
X0007616Y00339939*
X00073119Y00341199*
X00069856Y00341628*
G37*
G36*
Y00391628D02*
X00053042D01*
X00049779Y00391199*
X00046738Y00389939*
X00044127Y00387935*
X00042124Y00385324*
X00040864Y00382284*
X00040434Y0037902*
X00040864Y00375757*
X00042124Y00372716*
X00044127Y00370105*
X00046738Y00368102*
X00049779Y00366842*
X00053042Y00366412*
X00069856*
X00073119Y00366842*
X0007616Y00368102*
X00078771Y00370105*
X00080775Y00372716*
X00081486Y00374432*
X00085167*
X00161019Y00298581*
Y00284956*
X00160615Y00284645*
X00159493Y00283183*
X00158787Y0028148*
X00158547Y00279654*
X00158787Y00277826*
X00159493Y00276123*
X00160615Y00274661*
X00162077Y00273539*
X0016378Y00272833*
X00165498Y00272607*
X0016572Y00272288*
X00166059Y00271371*
X00128296Y00233609*
X00080485*
X00079775Y00235325*
X00077771Y00237936*
X0007516Y00239939*
X00072119Y00241199*
X00068856Y00241629*
X00052042*
X00048779Y00241199*
X00045738Y00239939*
X00043127Y00237936*
X00041123Y00235325*
X00039864Y00232284*
X00039434Y00229021*
X00039864Y00225757*
X00041123Y00222717*
X00043127Y00220106*
X00045738Y00218102*
X00048779Y00216842*
X00052042Y00216413*
X00068856*
X00072119Y00216842*
X0007516Y00218102*
X00077771Y00220106*
X00079775Y00222717*
X00080485Y00224432*
X00130197*
X00131953Y00224782*
X00133441Y00225776*
X00196834Y00289169*
X00197339Y00289103*
X00199167Y00289343*
X00200869Y00290048*
X00202332Y00291171*
X00203454Y00292633*
X00204159Y00294336*
X002044Y00296164*
X00204159Y0029799*
X00203454Y00299693*
X00202332Y00301155*
X00200869Y00302277*
X00199167Y00302983*
X00197339Y00303223*
X00195512Y00302983*
X00193809Y00302277*
X00192347Y00301155*
X00191225Y00299693*
X00190519Y0029799*
X00190279Y00296164*
X00190345Y00295658*
X00173889Y00279201*
X00172974Y0027954*
X00172653Y00279762*
X00172427Y0028148*
X00171722Y00283183*
X00170599Y00284645*
X00170195Y00284956*
Y00300482*
X00169846Y00302237*
X00168851Y00303725*
X00090312Y00382265*
X00088824Y00383259*
X00087068Y00383609*
X00081486*
X00080775Y00385324*
X00078771Y00387935*
X0007616Y00389939*
X00073119Y00391199*
X00069856Y00391628*
G37*
G36*
Y00291628D02*
X00053042D01*
X00049779Y00291199*
X00046738Y00289939*
X00044127Y00287936*
X00042124Y00285325*
X00040864Y00282284*
X00040434Y0027902*
X00040864Y00275757*
X00042124Y00272717*
X00044127Y00270105*
X00046738Y00268102*
X00049779Y00266842*
X00053042Y00266413*
X00069856*
X00073119Y00266842*
X0007616Y00268102*
X00078771Y00270105*
X00080775Y00272717*
X00082035Y00275757*
X00082464Y0027902*
X00082035Y00282284*
X00080775Y00285325*
X00078771Y00287936*
X0007616Y00289939*
X00073119Y00291199*
X00069856Y00291628*
G37*
G36*
X00749808Y00239761D02*
X00744648D01*
X00744705Y00239323*
X00745364Y00237733*
X00746413Y00236366*
X00747779Y00235318*
X0074937Y00234659*
X00749808Y00234602*
Y00239761*
G37*
G36*
X00785619Y00213247D02*
X00779269D01*
Y00204269*
X007957*
X00795517Y00205651*
X00794494Y00208123*
X00792865Y00210245*
X00790743Y00211874*
X00788271Y00212897*
X00785619Y00213247*
G37*
G36*
X00776729D02*
X00770379D01*
X00767727Y00212897*
X00765255Y00211874*
X00763133Y00210245*
X00761504Y00208123*
X0076048Y00205651*
X00760299Y00204269*
X00776729*
Y00213247*
G37*
G36*
X00673354Y00199976D02*
Y00194818D01*
X00678512*
X00678455Y00195254*
X00677796Y00196845*
X00676747Y00198211*
X00675381Y0019926*
X0067379Y00199919*
X00673354Y00199976*
G37*
G36*
X00670814D02*
X00670376Y00199919D01*
X00668785Y0019926*
X00667419Y00198211*
X0066637Y00196845*
X00665711Y00195254*
X00665654Y00194818*
X00670814*
Y00199976*
G37*
G36*
X007957Y00201729D02*
X00779269D01*
Y00192751*
X00785619*
X00788271Y001931*
X00790743Y00194124*
X00792865Y00195753*
X00794494Y00197875*
X00795517Y00200347*
X007957Y00201729*
G37*
G36*
X00776729D02*
X00760299D01*
X0076048Y00200347*
X00761504Y00197875*
X00763133Y00195753*
X00765255Y00194124*
X00767727Y001931*
X00770379Y00192751*
X00776729*
Y00201729*
G37*
G36*
X00678512Y00192278D02*
X00673354D01*
Y00187118*
X0067379Y00187175*
X00675381Y00187834*
X00676747Y00188883*
X00677796Y00190249*
X00678455Y0019184*
X00678512Y00192278*
G37*
G36*
X00670814D02*
X00665654D01*
X00665711Y0019184*
X0066637Y00190249*
X00667419Y00188883*
X00668785Y00187834*
X00670376Y00187175*
X00670814Y00187118*
Y00192278*
G37*
G36*
X00624586Y00170635D02*
X00622758Y00170395D01*
X00621055Y00169689*
X00619593Y00168567*
X0061847Y00167105*
X00617765Y00165402*
X00617525Y00163576*
X00617591Y0016307*
X00588903Y00134381*
X0031823*
X00317919Y00134785*
X00316457Y00135907*
X00314754Y00136613*
X00312928Y00136853*
X003111Y00136613*
X00309397Y00135907*
X00307935Y00134785*
X00306813Y00133323*
X00306107Y0013162*
X00305867Y00129794*
X00306107Y00127966*
X00306813Y00126263*
X00307935Y00124801*
X00309397Y00123679*
X003111Y00122973*
X00312928Y00122733*
X00314754Y00122973*
X00316457Y00123679*
X00317919Y00124801*
X0031823Y00125205*
X00590804*
X00592559Y00125554*
X00594047Y00126549*
X0062408Y00156581*
X00624586Y00156515*
X00626412Y00156755*
X00628115Y00157461*
X00629577Y00158583*
X00630699Y00160045*
X00631405Y00161748*
X00631645Y00163576*
X00631405Y00165402*
X00630699Y00167105*
X00629577Y00168567*
X00628115Y00169689*
X00626412Y00170395*
X00624586Y00170635*
G37*
G36*
X00724662Y00204671D02*
X00722834Y00204431D01*
X00721131Y00203726*
X00719669Y00202603*
X00718547Y00201141*
X00717841Y00199438*
X00717601Y00197612*
X00717841Y00195784*
X00718153Y00195031*
X00717067Y00194582*
X00715605Y00193459*
X00714482Y00191997*
X00713777Y00190294*
X00713537Y00188468*
X00713777Y0018664*
X00714482Y00184937*
X00715605Y00183475*
X00717067Y00182352*
X0071877Y00181647*
X00720598Y00181407*
X00721102Y00181473*
X00749906Y00152669*
X0074938Y00151399*
X00671952*
X00664853Y00158498*
X00664919Y00159004*
X00664679Y0016083*
X00663974Y00162533*
X00662851Y00163995*
X00661389Y00165118*
X00659686Y00165823*
X0065786Y00166063*
X00656097Y00165831*
X00655767Y00165839*
X00654827Y00166467*
Y0018926*
X00655231Y00189571*
X00656354Y00191033*
X00657059Y00192736*
X00657299Y00194564*
X00657059Y0019639*
X00656354Y00198093*
X00655231Y00199555*
X00653769Y00200678*
X00652066Y00201383*
X0065024Y00201623*
X00648412Y00201383*
X00646709Y00200678*
X00645247Y00199555*
X00644125Y00198093*
X00643419Y0019639*
X00643179Y00194564*
X00643419Y00192736*
X00644125Y00191033*
X00645247Y00189571*
X00645651Y0018926*
Y00150114*
X00646Y00148357*
X00646995Y00146869*
X00657155Y00136709*
X00658643Y00135714*
X006604Y00135365*
X00821144*
X0082938Y00127129*
X00829297Y00125862*
X00828425Y00125193*
X00826722Y00122975*
X00825652Y00120391*
X00825287Y00117619*
Y00102379*
X00825652Y00099606*
X00826722Y00097023*
X00828425Y00094804*
X00830643Y00093102*
X00833226Y00092032*
X00835999Y00091667*
X00838771Y00092032*
X00841355Y00093102*
X00843573Y00094804*
X00845275Y00097023*
X00846346Y00099606*
X00846711Y00102379*
Y00117619*
X00846346Y00120391*
X00845275Y00122975*
X00843573Y00125193*
X00841355Y00126895*
X00840541Y00127233*
X00840238Y00128755*
X00839243Y00130243*
X00828437Y0014105*
X00828923Y00142223*
X0084248*
X00856319Y00128384*
X00856097Y00126918*
X00856043Y00126895*
X00853825Y00125193*
X00852122Y00122975*
X00851052Y00120391*
X00850687Y00117619*
Y00102379*
X00851052Y00099606*
X00852122Y00097023*
X00853825Y00094804*
X00856043Y00093102*
X00858626Y00092032*
X00861399Y00091667*
X00864171Y00092032*
X00866755Y00093102*
X00868973Y00094804*
X00870675Y00097023*
X00871746Y00099606*
X00872111Y00102379*
Y00117619*
X00871746Y00120391*
X00870675Y00122975*
X00868973Y00125193*
X00866755Y00126895*
X00865987Y00127213*
Y00129794*
X00865638Y00131549*
X00864643Y00133037*
X008486Y00149081*
X00849126Y00150351*
X0086871*
X00869021Y00149947*
X00870483Y00148825*
X00872186Y00148119*
X00874014Y00147879*
X0087584Y00148119*
X00877543Y00148825*
X00879005Y00149947*
X00880127Y00151409*
X00880833Y00153112*
X00881073Y0015494*
X00880833Y00156766*
X00880127Y00158469*
X00879005Y00159931*
X00877543Y00161053*
X0087584Y00161759*
X00874014Y00161999*
X00872186Y00161759*
X00870483Y00161053*
X00869021Y00159931*
X0086871Y00159527*
X00756026*
X00743629Y00171923*
X00744255Y00173094*
X00744673Y00173011*
X00760784*
X00761102Y00172243*
X00762805Y00170025*
X00765023Y00168322*
X00767607Y00167252*
X00770379Y00166887*
X00785619*
X00788391Y00167252*
X00790975Y00168322*
X00793193Y00170025*
X00794895Y00172243*
X00795966Y00174826*
X00796331Y00177599*
X00795966Y00180371*
X00794895Y00182955*
X00793193Y00185173*
X00790975Y00186875*
X00788391Y00187945*
X00785619Y00188311*
X00770379*
X00767607Y00187945*
X00765023Y00186875*
X00762805Y00185173*
X00761102Y00182955*
X00760784Y00182187*
X00746574*
X00731655Y00197106*
X00731721Y00197612*
X00731481Y00199438*
X00730776Y00201141*
X00729653Y00202603*
X00728191Y00203726*
X00726488Y00204431*
X00724662Y00204671*
G37*
G36*
X00811869Y00127699D02*
Y00111269D01*
X00820846*
Y00117619*
X00820497Y00120271*
X00819474Y00122743*
X00817845Y00124865*
X00815723Y00126494*
X00813251Y00127517*
X00811869Y00127699*
G37*
G36*
X00809329D02*
X00807947Y00127517D01*
X00805475Y00126494*
X00803353Y00124865*
X00801724Y00122743*
X008007Y00120271*
X00800351Y00117619*
Y00111269*
X00809329*
Y00127699*
G37*
G36*
X00820846Y00108729D02*
X00811869D01*
Y00092298*
X00813251Y0009248*
X00815723Y00093504*
X00817845Y00095133*
X00819474Y00097255*
X00820497Y00099726*
X00820846Y00102379*
Y00108729*
G37*
G36*
X00809329D02*
X00800351D01*
Y00102379*
X008007Y00099726*
X00801724Y00097255*
X00803353Y00095133*
X00805475Y00093504*
X00807947Y0009248*
X00809329Y00092298*
Y00108729*
G37*
G36*
X00884139Y00087708D02*
Y0008255D01*
X00889298*
X00889241Y00082986*
X00888582Y00084577*
X00887533Y00085943*
X00886167Y00086992*
X00884576Y00087651*
X00884139Y00087708*
G37*
G36*
X00881599D02*
X00881162Y00087651D01*
X00879571Y00086992*
X00878205Y00085943*
X00877156Y00084577*
X00876497Y00082986*
X0087644Y0008255*
X00881599*
Y00087708*
G37*
G36*
X00889298Y0008001D02*
X00884139D01*
Y0007485*
X00884576Y00074907*
X00886167Y00075566*
X00887533Y00076615*
X00888582Y00077981*
X00889241Y00079572*
X00889298Y0008001*
G37*
G36*
X00881599D02*
X0087644D01*
X00876497Y00079572*
X00877156Y00077981*
X00878205Y00076615*
X00879571Y00075566*
X00881162Y00074907*
X00881599Y0007485*
Y0008001*
G37*
G36*
X00809999Y0007311D02*
X0080549Y00072666D01*
X00801155Y00071351*
X00797159Y00069215*
X00793657Y00066341*
X00790783Y00062839*
X00788647Y00058843*
X00787332Y00054508*
X00786888Y00049999*
X00787332Y0004549*
X00788647Y00041155*
X00790783Y00037159*
X00793657Y00033657*
X00797159Y00030783*
X00801155Y00028647*
X0080549Y00027332*
X00809999Y00026888*
X00814508Y00027332*
X00818843Y00028647*
X00822839Y00030783*
X00826341Y00033657*
X00829215Y00037159*
X00831351Y00041155*
X00832666Y0004549*
X0083311Y00049999*
X00832666Y00054508*
X00831351Y00058843*
X00829215Y00062839*
X00826341Y00066341*
X00822839Y00069215*
X00818843Y00071351*
X00814508Y00072666*
X00809999Y0007311*
G37*
G36*
X00209999D02*
X0020549Y00072666D01*
X00201155Y00071351*
X00197159Y00069215*
X00193657Y00066341*
X00190783Y00062839*
X00188647Y00058843*
X00187332Y00054508*
X00186888Y00049999*
X00187332Y0004549*
X00188647Y00041155*
X00190783Y00037159*
X00193657Y00033657*
X00197159Y00030783*
X00201155Y00028647*
X0020549Y00027332*
X00209999Y00026888*
X00214508Y00027332*
X00218843Y00028647*
X00222839Y00030783*
X00226341Y00033657*
X00229215Y00037159*
X00231351Y00041155*
X00232666Y0004549*
X0023311Y00049999*
X00232666Y00054508*
X00231351Y00058843*
X00229215Y00062839*
X00226341Y00066341*
X00222839Y00069215*
X00218843Y00071351*
X00214508Y00072666*
X00209999Y0007311*
G37*
%LNcas_to_modbus-3*%
%LPD*%
G36*
X00599931Y00405347D02*
Y00257302D01*
X0060028Y00255545*
X00601275Y00254057*
X00627491Y0022784*
Y00208173*
X00626809Y00207717*
X00626221Y00207503*
X00624579Y00207719*
X00622752Y00207479*
X00621049Y00206774*
X00619587Y00205651*
X00619276Y00205247*
X00616319*
X00610654Y00210913*
X00611493Y0021187*
X00611969Y00211505*
X00613672Y00210799*
X00615499Y00210559*
X00617326Y00210799*
X00619029Y00211505*
X00620491Y00212627*
X00621613Y00214089*
X00622319Y00215792*
X00622559Y00217619*
X00622319Y00219446*
X00621613Y00221149*
X00620491Y00222611*
X00619029Y00223734*
X00617326Y00224439*
X00615499Y0022468*
X00614994Y00224613*
X00600397Y00239209*
X00598909Y00240204*
X00597154Y00240553*
X00461788*
X00460032Y00240204*
X00458544Y00239209*
X00434742Y00215407*
X00409714*
X00409329Y00216677*
X00410151Y00217227*
X00598758Y00405833*
X00599931Y00405347*
G37*
G36*
X00537132Y00223249D02*
X00536473Y00222976D01*
X00535011Y00221854*
X00533889Y00220391*
X00533183Y00218688*
X00532943Y00216861*
X00533183Y00215034*
X00533889Y00213331*
X00535011Y00211869*
X00535415Y00211559*
Y00187662*
X00510746Y00162993*
X00510241Y0016306*
X00508413Y00162819*
X00506711Y00162114*
X00505248Y00160992*
X00504126Y00159529*
X00503421Y00157827*
X0050318Y00155999*
X00503421Y00154172*
X00504126Y00152469*
X00504752Y00151653*
X00504126Y00150383*
X00441574*
X00403293Y00188663*
X00401805Y00189658*
X0040005Y00190007*
X0038935*
X00389039Y00190411*
X00388635Y00190722*
Y00195481*
X00389575Y00196109*
X00389905Y00196117*
X00391668Y00195885*
X00393494Y00196125*
X00395197Y0019683*
X00396659Y00197953*
X0039697Y00198357*
X00443894*
X0044565Y00198706*
X00447139Y00199701*
X00471957Y00224519*
X0053688*
X00537132Y00223249*
G37*
G54D77*
X00741354Y00202999D02*
X00761437D01*
X00061449Y00537999D02*
X00200123D01*
X00314452Y00423672*
X00672084Y00193548D02*
X00684647Y00206111D01*
X00738241*
X00741354Y00202999*
X00810599Y0009144D02*
Y00109999D01*
Y0009144D02*
X00820759Y0008128D01*
X00882869*
X00761437Y00202999D02*
X00777999D01*
X00751078Y0021336D02*
X00761437Y00202999D01*
X00751078Y0021336D02*
Y00241031D01*
G54D81*
X00384048Y00263883D02*
X00549169Y00429006D01*
X00384048Y0018542D02*
Y00263883D01*
X00841248Y00248939D02*
Y00338751D01*
X00591989Y0058801D02*
X00841248Y00338751D01*
X00407416Y0058801D02*
X00591989D01*
X00822706Y00230397D02*
X00841248Y00248939D01*
X00384048Y0018542D02*
X0040005D01*
X00406908Y00220472D02*
X0060452Y00418084D01*
X00597154Y00235966D02*
X00615499Y00217619D01*
X00461788Y00235966D02*
X00597154D01*
X00436642Y0021082D02*
X00461788Y00235966D01*
X00400812Y0021082D02*
X00436642D01*
X00312928Y00129794D02*
X00590804D01*
X00624586Y00163576*
X00810768Y00307594D02*
X00833628Y00330454D01*
X0061722Y00307594D02*
X00810768D01*
X00510241Y00155999D02*
X00540004Y00185761D01*
Y00216861*
X00614419Y0020066D02*
X00624579D01*
X00585971Y00229108D02*
X00614419Y0020066D01*
X00470056Y00229108D02*
X00585971D01*
X00443894Y00202946D02*
X00470056Y00229108D01*
X00391668Y00202946D02*
X00443894D01*
X00554228Y00145796D02*
X00586931Y00178499D01*
X00439674Y00145796D02*
X00554228D01*
X0040005Y0018542D02*
X00439674Y00145796D01*
X00597662Y00197104D02*
X00606806Y0018796D01*
X00624586*
X00632079Y00195453*
Y00229741*
X0060452Y00257302D02*
X00632079Y00229741D01*
X0060452Y00257302D02*
Y00418084D01*
X00645414Y00458978*
X0040386Y0022352D02*
X00406908Y00220472D01*
X00835999Y00109999D02*
Y00127D01*
X00823045Y00139954D02*
X00835999Y00127D01*
X006604Y00139954D02*
X00823045D01*
X0065024Y00150114D02*
X006604Y00139954D01*
X0065024Y00150114D02*
Y00194564D01*
X0023368Y0040132D02*
Y00437999D01*
X00165608Y00279654D02*
Y00300482D01*
X00087068Y0037902D02*
X00165608Y00300482D01*
X00061449Y0037902D02*
X00087068D01*
X00060449Y00229021D02*
X00130197D01*
X00197339Y00296164*
X00861399Y00109999D02*
Y00129794D01*
X00844381Y00146812D02*
X00861399Y00129794D01*
X00670052Y00146812D02*
X00844381D01*
X0065786Y00159004D02*
X00670052Y00146812D01*
X00713232Y00246634D02*
X00715264Y00248666D01*
X00758698*
X00764794Y0024257*
X00810533*
X00822706Y00230397*
X00744673Y00177599D02*
X00777999D01*
X00724662Y00197612D02*
X00744673Y00177599D01*
X00720598Y00188468D02*
X00754126Y0015494D01*
X00874014*
X0061976Y00328676D02*
X00743204D01*
X006096Y00318516D02*
X0061976Y00328676D01*
X006096Y00277114D02*
Y00318516D01*
Y00277114D02*
X0061214Y00274574D01*
X00643636Y00358648D02*
X00703326D01*
X00631698Y0034671D02*
X00643636Y00358648D01*
G54D82*
X00209999Y00049999D03*
Y00629999D03*
X00809999Y00049999D03*
Y00629999D03*
G54D83*
X00952989Y00486879D03*
Y0043688D03*
Y00386879D03*
X00061449Y0037902D03*
Y0032902D03*
Y0027902D03*
X00060449Y00229021D03*
X00061449Y00487999D03*
Y00537999D03*
G54D84*
X00777999Y00253799D03*
Y00228399D03*
Y00202999D03*
Y00177599D03*
G54D85*
X00810599Y00109999D03*
X00835999D03*
X00861399D03*
G54D86*
X00945999Y00645999D03*
X00970999Y00595999D03*
X00945999Y00545999D03*
X00970999Y00295999D03*
X00945999Y00145999D03*
X00970999Y00095999D03*
X00945999Y00045999D03*
X00895999Y00645999D03*
Y00545999D03*
X00920999Y00495999D03*
Y00395999D03*
Y00295999D03*
X00895999Y00145999D03*
X00920999Y00095999D03*
X00895999Y00045999D03*
X00845999Y00645999D03*
X00870999Y00595999D03*
X00845999Y00545999D03*
X00870999Y00495999D03*
Y00395999D03*
Y00295999D03*
X00845999Y00045999D03*
X00820999Y00595999D03*
X00795999Y00545999D03*
X00820999Y00495999D03*
X00795999Y00445999D03*
X00820999Y00295999D03*
X00745999Y00645999D03*
X00770999Y00595999D03*
X00745999Y00545999D03*
X00770999Y00495999D03*
Y00395999D03*
X00745999Y00345999D03*
X00770999Y00295999D03*
Y00095999D03*
X00745999Y00045999D03*
X00695999Y00645999D03*
X00720999Y00595999D03*
X00695999Y00545999D03*
X00720999Y00495999D03*
X00695999Y00445999D03*
X00720999Y00395999D03*
Y00295999D03*
Y00095999D03*
X00695999Y00045999D03*
X00645999Y00645999D03*
X00670999Y00595999D03*
X00645999Y00545999D03*
Y00245999D03*
X00670999Y00095999D03*
X00645999Y00045999D03*
X00595999Y00645999D03*
Y00545999D03*
X00620999Y00395999D03*
Y00095999D03*
X00595999Y00045999D03*
X00545999Y00645999D03*
Y00545999D03*
X00570999Y00495999D03*
X00545999Y00345999D03*
X00570999Y00295999D03*
X00545999Y00245999D03*
X00570999Y00095999D03*
X00495999Y00645999D03*
Y00545999D03*
X00520999Y00495999D03*
X00495999Y00445999D03*
Y00345999D03*
X00520999Y00295999D03*
X00495999Y00245999D03*
X00520999Y00195999D03*
Y00095999D03*
X00445999Y00645999D03*
Y00545999D03*
Y00445999D03*
X00470999Y00395999D03*
X00445999Y00345999D03*
X00470999Y00095999D03*
X00445999Y00045999D03*
X00395999Y00645999D03*
Y00445999D03*
Y00245999D03*
Y00145999D03*
X00420999Y00095999D03*
X00395999Y00045999D03*
X00345999Y00645999D03*
X00370999Y00595999D03*
X00345999Y00545999D03*
Y00345999D03*
X00370999Y00295999D03*
X00345999Y00245999D03*
X00370999Y00095999D03*
X00345999Y00045999D03*
X00295999Y00645999D03*
X00320999Y00595999D03*
Y00295999D03*
Y00195999D03*
Y00095999D03*
X00295999Y00045999D03*
X00245999Y00645999D03*
X00270999Y00595999D03*
X00245999Y00545999D03*
X00270999Y00495999D03*
X00245999Y00445999D03*
Y00345999D03*
X00270999Y00295999D03*
Y00095999D03*
X00245999Y00045999D03*
X00220999Y00595999D03*
X00195999Y00445999D03*
X00220999Y00295999D03*
Y00095999D03*
X00145999Y00645999D03*
X00170999Y00595999D03*
Y00495999D03*
X00145999Y00445999D03*
Y00145999D03*
X00170999Y00095999D03*
X00145999Y00045999D03*
X00095999Y00645999D03*
X00120999Y00595999D03*
Y00495999D03*
X00095999Y00445999D03*
X00120999Y00395999D03*
X00095999Y00345999D03*
Y00245999D03*
X00120999Y00195999D03*
Y00095999D03*
X00095999Y00045999D03*
X00045999Y00645999D03*
X00070999Y00595999D03*
Y00295999D03*
Y00195999D03*
Y00095999D03*
X00045999Y00045999D03*
X00615499Y00217619D03*
X00400812Y0021082D03*
X00312928Y00129794D03*
X00624586Y00163576D03*
X00314452Y00423672D03*
X00833628Y00330454D03*
X0061722Y00307594D03*
X00510241Y00155999D03*
X00540004Y00216861D03*
X00624579Y0020066D03*
X00391668Y00202946D03*
X00586931Y00178499D03*
X00597662Y00197104D03*
X0040386Y0022352D03*
X00645414Y00458978D03*
X0065024Y00194564D03*
X0023368Y0040132D03*
Y00437999D03*
X00165608Y00279654D03*
X00197339Y00296164D03*
X0065786Y00159004D03*
X00407416Y0058801D03*
X00672084Y00193548D03*
X00713232Y00246634D03*
X00822706Y00230397D03*
X00724662Y00197612D03*
X00720598Y00188468D03*
X00874014Y0015494D03*
X00384048Y0018542D03*
X00549169Y00429006D03*
X00743204Y00328676D03*
X0061214Y00274574D03*
X00703326Y00358648D03*
X00631698Y0034671D03*
X00882869Y0008128D03*
X00751078Y00241031D03*
M02*