%FSTAX44Y44*%
%MOMM*%
%SFA1B1*%

%IPPOS*%
%ADD10C,0.200000*%
%ADD11C,0.152400*%
%ADD12C,0.253999*%
%ADD13C,0.599999*%
%ADD14C,0.250000*%
%ADD15C,0.203200*%
%ADD16C,0.127000*%
%ADD17C,0.150000*%
%ADD18C,0.100000*%
%ADD19C,0.101600*%
%ADD20C,0.050800*%
%ADD21C,0.799998*%
%ADD22C,0.349999*%
%ADD23R,0.324999X0.431799*%
%ADD24R,0.330199X0.431799*%
%ADD25R,0.352799X0.355599*%
%ADD26R,0.324999X0.431799*%
%LNcas_to_modbus-1*%
%LPD*%
G54D10*
X00488999Y00499999D02*
D01*
X00488964Y00499998*
X0048893Y00499994*
X00488895Y00499988*
X00488862Y0049998*
X00488828Y00499969*
X00488796Y00499956*
X00488765Y00499941*
X00488734Y00499923*
X00488705Y00499904*
X00488678Y00499882*
X00488652Y00499859*
X00488628Y00499834*
X00488605Y00499807*
X00488585Y00499779*
X00488566Y00499749*
X0048855Y00499719*
X00488536Y00499687*
X00488524Y00499654*
X00488514Y0049962*
X00488507Y00499586*
X00488502Y00499552*
X004885Y00499517*
Y00499482*
X00488502Y00499447*
X00488507Y00499413*
X00488514Y00499378*
X00488524Y00499345*
X00488536Y00499312*
X0048855Y0049928*
X00488566Y00499249*
X00488585Y0049922*
X00488605Y00499192*
X00488628Y00499165*
X00488652Y0049914*
X00488678Y00499116*
X00488705Y00499095*
X00488734Y00499075*
X00488765Y00499058*
X00488796Y00499043*
X00488828Y00499029*
X00488862Y00499019*
X00488895Y0049901*
X0048893Y00499004*
X00488964Y00499001*
X00488999Y00498999*
D01*
X00489034Y00499001*
X00489069Y00499004*
X00489103Y0049901*
X00489137Y00499019*
X0048917Y00499029*
X00489203Y00499043*
X00489234Y00499058*
X00489264Y00499075*
X00489293Y00499095*
X00489321Y00499116*
X00489347Y0049914*
X00489371Y00499165*
X00489393Y00499192*
X00489414Y0049922*
X00489432Y00499249*
X00489449Y0049928*
X00489463Y00499312*
X00489475Y00499345*
X00489484Y00499378*
X00489492Y00499413*
X00489497Y00499447*
X00489499Y00499482*
Y00499517*
X00489497Y00499552*
X00489492Y00499586*
X00489484Y0049962*
X00489475Y00499654*
X00489463Y00499687*
X00489449Y00499719*
X00489432Y00499749*
X00489414Y00499779*
X00489393Y00499807*
X00489371Y00499834*
X00489347Y00499859*
X00489321Y00499882*
X00489293Y00499904*
X00489264Y00499923*
X00489234Y00499941*
X00489203Y00499956*
X0048917Y00499969*
X00489137Y0049998*
X00489103Y00499988*
X00489069Y00499994*
X00489034Y00499998*
X00488999Y00499999*
D01*
X00488964Y00499998*
X0048893Y00499994*
X00488895Y00499988*
X00488862Y0049998*
X00488828Y00499969*
X00488796Y00499956*
X00488765Y00499941*
X00488734Y00499923*
X00488705Y00499904*
X00488678Y00499882*
X00488652Y00499859*
X00488628Y00499834*
X00488605Y00499807*
X00488585Y00499779*
X00488566Y00499749*
X0048855Y00499719*
X00488536Y00499687*
X00488524Y00499654*
X00488514Y0049962*
X00488507Y00499586*
X00488502Y00499552*
X004885Y00499517*
Y00499482*
X00488502Y00499447*
X00488507Y00499413*
X00488514Y00499378*
X00488524Y00499345*
X00488536Y00499312*
X0048855Y0049928*
X00488566Y00499249*
X00488585Y0049922*
X00488605Y00499192*
X00488628Y00499165*
X00488652Y0049914*
X00488678Y00499116*
X00488705Y00499095*
X00488734Y00499075*
X00488765Y00499058*
X00488796Y00499043*
X00488828Y00499029*
X00488862Y00499019*
X00488895Y0049901*
X0048893Y00499004*
X00488964Y00499001*
X00488999Y00498999*
X00523999Y00167999D02*
D01*
X00524034Y00168001*
X00524069Y00168004*
X00524103Y0016801*
X00524137Y00168019*
X0052417Y0016803*
X00524203Y00168043*
X00524234Y00168058*
X00524264Y00168075*
X00524293Y00168095*
X00524321Y00168116*
X00524347Y0016814*
X00524371Y00168165*
X00524393Y00168191*
X00524414Y0016822*
X00524432Y00168249*
X00524449Y0016828*
X00524463Y00168312*
X00524475Y00168345*
X00524485Y00168378*
X00524492Y00168412*
X00524497Y00168447*
X00524499Y00168482*
Y00168517*
X00524497Y00168552*
X00524492Y00168586*
X00524485Y0016862*
X00524475Y00168654*
X00524463Y00168687*
X00524449Y00168718*
X00524432Y00168749*
X00524414Y00168779*
X00524393Y00168807*
X00524371Y00168834*
X00524347Y00168859*
X00524321Y00168882*
X00524293Y00168904*
X00524264Y00168923*
X00524234Y00168941*
X00524203Y00168956*
X0052417Y00168969*
X00524137Y0016898*
X00524103Y00168988*
X00524069Y00168995*
X00524034Y00168998*
X00523999Y00168999*
D01*
X00523964Y00168998*
X0052393Y00168995*
X00523895Y00168988*
X00523862Y0016898*
X00523828Y00168969*
X00523796Y00168956*
X00523765Y00168941*
X00523734Y00168923*
X00523706Y00168904*
X00523678Y00168882*
X00523652Y00168859*
X00523628Y00168834*
X00523605Y00168807*
X00523585Y00168779*
X00523566Y00168749*
X0052355Y00168718*
X00523536Y00168687*
X00523524Y00168654*
X00523514Y0016862*
X00523507Y00168586*
X00523502Y00168552*
X005235Y00168517*
Y00168482*
X00523502Y00168447*
X00523507Y00168412*
X00523514Y00168378*
X00523524Y00168345*
X00523536Y00168312*
X0052355Y0016828*
X00523566Y00168249*
X00523585Y0016822*
X00523605Y00168191*
X00523628Y00168165*
X00523652Y0016814*
X00523678Y00168116*
X00523706Y00168095*
X00523734Y00168075*
X00523765Y00168058*
X00523796Y00168043*
X00523828Y0016803*
X00523862Y00168019*
X00523895Y0016801*
X0052393Y00168004*
X00523964Y00168001*
X00523999Y00167999*
D01*
X00524034Y00168001*
X00524069Y00168004*
X00524103Y0016801*
X00524137Y00168019*
X0052417Y0016803*
X00524203Y00168043*
X00524234Y00168058*
X00524264Y00168075*
X00524293Y00168095*
X00524321Y00168116*
X00524347Y0016814*
X00524371Y00168165*
X00524393Y00168191*
X00524414Y0016822*
X00524432Y00168249*
X00524449Y0016828*
X00524463Y00168312*
X00524475Y00168345*
X00524485Y00168378*
X00524492Y00168412*
X00524497Y00168447*
X00524499Y00168482*
Y00168517*
X00524497Y00168552*
X00524492Y00168586*
X00524485Y0016862*
X00524475Y00168654*
X00524463Y00168687*
X00524449Y00168718*
X00524432Y00168749*
X00524414Y00168779*
X00524393Y00168807*
X00524371Y00168834*
X00524347Y00168859*
X00524321Y00168882*
X00524293Y00168904*
X00524264Y00168923*
X00524234Y00168941*
X00524203Y00168956*
X0052417Y00168969*
X00524137Y0016898*
X00524103Y00168988*
X00524069Y00168995*
X00524034Y00168998*
X00523999Y00168999*
X00364969Y00452789D02*
X00433569D01*
X00364969Y00517489D02*
X00433569D01*
X00422199Y00583189D02*
Y00596189D01*
X00392599Y00579689D02*
X00421799D01*
X00392599Y00578689D02*
Y00579689D01*
Y00578689D02*
X00421799D01*
Y00579689*
X00535229Y00583189D02*
Y00596189D01*
X00505629Y00579689D02*
X00534829D01*
X00505629Y00578689D02*
Y00579689D01*
Y00578689D02*
X00534829D01*
Y00579689*
X00543669Y00459339D02*
Y00472339D01*
X00544069Y00475839D02*
X00573269D01*
Y00476839*
X00544069D02*
X00573269D01*
X00544069Y00475839D02*
Y00476839D01*
X00655499Y00458499D02*
Y00471499D01*
X00655899Y00474999D02*
X00685099D01*
Y00475999*
X00655899D02*
X00685099D01*
X00655899Y00474999D02*
Y00475999D01*
X00455999Y00413999D02*
X00473999D01*
X00455999D02*
Y00464999D01*
X00470999Y00479999*
X00473999*
X00503999D02*
X00506999D01*
X00521999Y00464999*
Y00413999D02*
Y00464999D01*
X00503999Y00413999D02*
X00521999D01*
X00239809Y00408069D02*
X00255309D01*
X00694499Y00352999D02*
Y00384999D01*
X00645499Y00352999D02*
X00694499D01*
X00645499D02*
Y00384999D01*
X00694499*
X00695799Y00388499D02*
Y00403749D01*
X00912489Y00158319D02*
X00927239D01*
X00908989Y00161819D02*
Y00211819D01*
X00871989D02*
X00908989D01*
X00871989Y00161819D02*
Y00211819D01*
Y00161819D02*
X00908989D01*
X00375499Y00333249D02*
Y0041275D01*
X00434499Y00333249D02*
Y00418999D01*
X00122899Y00484999D02*
Y00538999D01*
X00159099Y00484999D02*
Y00544749D01*
X00300778Y00492D02*
Y00547999D01*
X00278778D02*
X00300778D01*
X00278778Y00492D02*
Y00547999D01*
Y00492D02*
X00300778D01*
X00730549Y00445799D02*
Y00501799D01*
Y00445799D02*
X00752549D01*
Y00501799*
X00730549D02*
X00752549D01*
X00823999Y00310999D02*
Y00366999D01*
X00801999D02*
X00823999D01*
X00801999Y00310999D02*
Y00366999D01*
Y00310999D02*
X00823999D01*
X00899219Y00311089D02*
Y00367089D01*
X00877219D02*
X00899219D01*
X00877219Y00311089D02*
Y00367089D01*
Y00311089D02*
X00899219D01*
X00618789Y00445799D02*
Y00501799D01*
Y00445799D02*
X00640789D01*
Y00501799*
X00618789D02*
X00640789D01*
X00606159Y00552669D02*
Y00608669D01*
X00584159D02*
X00606159D01*
X00584159Y00552669D02*
Y00608669D01*
Y00552669D02*
X00606159D01*
X00493129Y00553729D02*
Y00609729D01*
X00471129D02*
X00493129D01*
X00471129Y00553729D02*
Y00609729D01*
Y00553729D02*
X00493129D01*
X00288779Y0026924D02*
X00349739D01*
X00288779Y00140039D02*
Y0026924D01*
Y00140039D02*
X00288949Y00139869D01*
X00349739*
X00594499Y00191499D02*
X00679499D01*
X00594499Y00276499D02*
X00679499D01*
Y00191499D02*
Y00276499D01*
X00594499Y00191499D02*
Y00276499D01*
X00021449Y0020402D02*
X00111449D01*
X00437999Y00602999D02*
Y00612996D01*
X00442997*
X00444663Y0061133*
Y00607997*
X00442997Y00606331*
X00437999*
X00441331D02*
X00444663Y00602999D01*
X00452994D02*
Y00612996D01*
X00447996Y00607997*
X0045466*
X00364999Y00534996D02*
Y00524999D01*
X00371664*
X00374996D02*
X00378328D01*
X00376662*
Y00534996*
X00374996Y0053333*
X00132999Y00563996D02*
Y00553999D01*
X00137997*
X00139663Y00555665*
Y0056233*
X00137997Y00563996*
X00132999*
X00142996Y00553999D02*
X00146328D01*
X00144662*
Y00563996*
X00142996Y0056233*
X00849999Y00497996D02*
Y00487999D01*
X00854997*
X00856664Y00489665*
Y0049633*
X00854997Y00497996*
X00849999*
X00864994Y00487999D02*
Y00497996D01*
X00859996Y00492997*
X0086666*
X00799999Y00498996D02*
Y00488999D01*
X00804997*
X00806664Y00490665*
Y0049733*
X00804997Y00498996*
X00799999*
X00809996Y0049733D02*
X00811662Y00498996D01*
X00814994*
X0081666Y0049733*
Y00495663*
X00814994Y00493997*
X00813328*
X00814994*
X0081666Y00492331*
Y00490665*
X00814994Y00488999*
X00811662*
X00809996Y00490665*
X00703999Y00495999D02*
Y00505996D01*
X00708997*
X00710664Y0050433*
Y00500997*
X00708997Y00499331*
X00703999*
X00707331D02*
X00710664Y00495999D01*
X00713996Y00505996D02*
X0072066D01*
Y0050433*
X00713996Y00497665*
Y00495999*
X00597999Y00383999D02*
Y00393996D01*
X00602997*
X00604663Y0039233*
Y00388997*
X00602997Y00387331*
X00597999*
X00601331D02*
X00604663Y00383999D01*
X00607996D02*
X00611328D01*
X00609662*
Y00393996*
X00607996Y0039233*
X00616326Y00383999D02*
X00619659D01*
X00617993*
Y00393996*
X00616326Y0039233*
X00712479Y00376909D02*
Y00386906D01*
X00717477*
X00719144Y0038524*
Y00381907*
X00717477Y00380241*
X00712479*
X00715811D02*
X00719144Y00376909D01*
X00722476D02*
X00725808D01*
X00724142*
Y00386906*
X00722476Y0038524*
X00737471Y00376909D02*
X00730806D01*
X00737471Y00383573*
Y0038524*
X00735805Y00386906*
X00732473*
X00730806Y0038524*
X00498999Y00310996D02*
Y0030933D01*
X00502331Y00305997*
X00505663Y0030933*
Y00310996*
X00502331Y00305997D02*
Y00300999D01*
X00508996D02*
X00512328D01*
X00510662*
Y00310996*
X00508996Y0030933*
X00008999Y00198996D02*
X00015663Y00188999D01*
Y00198996D02*
X00008999Y00188999D01*
X00018996Y0019733D02*
X00020662Y00198996D01*
X00023994*
X0002566Y0019733*
Y00195664*
X00023994Y00193997*
X00022328*
X00023994*
X0002566Y00192331*
Y00190665*
X00023994Y00188999*
X00020662*
X00018996Y00190665*
X00973999Y00350996D02*
X00980664Y00340999D01*
Y00350996D02*
X00973999Y00340999D01*
X0099066D02*
X00983996D01*
X0099066Y00347663*
Y0034933*
X00988994Y00350996*
X00985662*
X00983996Y0034933*
X00022999Y00456996D02*
X00029663Y00446999D01*
Y00456996D02*
X00022999Y00446999D01*
X00032996D02*
X00036328D01*
X00034662*
Y00456996*
X00032996Y0045533*
X00801569Y00383286D02*
Y00376621D01*
X00804901Y00373289*
X00808233Y00376621*
Y00383286*
X00811566D02*
Y00373289D01*
X00816564*
X0081823Y00374955*
Y0038162*
X00816564Y00383286*
X00811566*
X00821563D02*
X00828227D01*
Y0038162*
X00821563Y00374955*
Y00373289*
X00874249Y00383376D02*
Y00376711D01*
X00877581Y0037338*
X00880914Y00376711*
Y00383376*
X00884246D02*
Y0037338D01*
X00889244*
X0089091Y00375045*
Y0038171*
X00889244Y00383376*
X00884246*
X00900907D02*
X00897575Y0038171D01*
X00894243Y00378377*
Y00375045*
X00895909Y0037338*
X00899241*
X00900907Y00375045*
Y00376711*
X00899241Y00378377*
X00894243*
X00728849Y00518086D02*
Y00511421D01*
X00732181Y00508089*
X00735514Y00511421*
Y00518086*
X00738846D02*
Y00508089D01*
X00743844*
X0074551Y00509755*
Y0051642*
X00743844Y00518086*
X00738846*
X00755507D02*
X00748843D01*
Y00513087*
X00752175Y00514753*
X00753841*
X00755507Y00513087*
Y00509755*
X00753841Y00508089*
X00750509*
X00748843Y00509755*
X00615999Y00516996D02*
Y00510331D01*
X00619331Y00506999*
X00622663Y00510331*
Y00516996*
X00625996D02*
Y00506999D01*
X00630994*
X0063266Y00508665*
Y0051533*
X00630994Y00516996*
X00625996*
X00640991Y00506999D02*
Y00516996D01*
X00635993Y00511997*
X00642657*
X00582459Y00624746D02*
Y00618081D01*
X00585791Y00614749*
X00589123Y00618081*
Y00624746*
X00592456D02*
Y00614749D01*
X00597454*
X0059912Y00616415*
Y0062308*
X00597454Y00624746*
X00592456*
X00602453Y0062308D02*
X00604119Y00624746D01*
X00607451*
X00609117Y0062308*
Y00621413*
X00607451Y00619747*
X00605785*
X00607451*
X00609117Y00618081*
Y00616415*
X00607451Y00614749*
X00604119*
X00602453Y00616415*
X00468159Y00626016D02*
Y00619351D01*
X00471491Y00616019*
X00474823Y00619351*
Y00626016*
X00478156D02*
Y00616019D01*
X00483154*
X0048482Y00617685*
Y0062435*
X00483154Y00626016*
X00478156*
X00494817Y00616019D02*
X00488153D01*
X00494817Y00622684*
Y0062435*
X00493151Y00626016*
X00489819*
X00488153Y0062435*
X00278999Y00486996D02*
Y00480331D01*
X00282331Y00476999*
X00285664Y00480331*
Y00486996*
X00288996D02*
Y00476999D01*
X00293994*
X0029566Y00478665*
Y0048533*
X00293994Y00486996*
X00288996*
X00298993Y00476999D02*
X00302325D01*
X00300659*
Y00486996*
X00298993Y0048533*
X00123425Y00258408D02*
Y00250077D01*
X00125091Y00248412*
X00128423*
X0013009Y00250077*
Y00258408*
X00133422Y00256742D02*
X00135088Y00258408D01*
X0013842*
X00140086Y00256742*
Y00255076*
X0013842Y00253409*
X00136754*
X0013842*
X00140086Y00251743*
Y00250077*
X0013842Y00248412*
X00135088*
X00133422Y00250077*
X00260839Y00288126D02*
Y00279795D01*
X00262505Y0027813*
X00265837*
X00267504Y00279795*
Y00288126*
X002775Y0027813D02*
X00270836D01*
X002775Y00284794*
Y0028646*
X00275834Y00288126*
X00272502*
X00270836Y0028646*
X00567999Y00308996D02*
Y00300665D01*
X00569665Y00298999*
X00572997*
X00574663Y00300665*
Y00308996*
X00577996Y00298999D02*
X00581328D01*
X00579662*
Y00308996*
X00577996Y0030733*
X00508664Y0019133D02*
X00506997Y00192996D01*
X00503665*
X00501999Y0019133*
Y00189663*
X00503665Y00187997*
X00506997*
X00508664Y00186331*
Y00184665*
X00506997Y00182999*
X00503665*
X00501999Y00184665*
X00511996Y00182999D02*
X00515328D01*
X00513662*
Y00192996*
X00511996Y0019133*
X00414999Y00181999D02*
Y00191996D01*
X00419997*
X00421664Y0019033*
Y00186997*
X00419997Y00185331*
X00414999*
X00418331D02*
X00421664Y00181999D01*
X00424996D02*
X00428328D01*
X00426662*
Y00191996*
X00424996Y0019033*
X00433326D02*
X00434993Y00191996D01*
X00438325*
X00439991Y0019033*
Y00183665*
X00438325Y00181999*
X00434993*
X00433326Y00183665*
Y0019033*
X00766999Y00359999D02*
Y00369996D01*
X00771997*
X00773663Y0036833*
Y00364998*
X00771997Y00363331*
X00766999*
X00770331D02*
X00773663Y00359999D01*
X00776996Y00361665D02*
X00778662Y00359999D01*
X00781994*
X0078366Y00361665*
Y0036833*
X00781994Y00369996*
X00778662*
X00776996Y0036833*
Y00366664*
X00778662Y00364998*
X0078366*
X00840999Y00359999D02*
Y00369996D01*
X00845997*
X00847663Y0036833*
Y00364998*
X00845997Y00363331*
X00840999*
X00844331D02*
X00847663Y00359999D01*
X00850996Y0036833D02*
X00852662Y00369996D01*
X00855994*
X0085766Y0036833*
Y00366664*
X00855994Y00364998*
X0085766Y00363331*
Y00361665*
X00855994Y00359999*
X00852662*
X00850996Y00361665*
Y00363331*
X00852662Y00364998*
X00850996Y00366664*
Y0036833*
X00852662Y00364998D02*
X00855994D01*
X00586999Y00493999D02*
Y00503996D01*
X00591997*
X00593664Y0050233*
Y00498997*
X00591997Y00497332*
X00586999*
X00590331D02*
X00593664Y00493999D01*
X0060366Y00503996D02*
X00600329Y0050233D01*
X00596996Y00498997*
Y00495665*
X00598662Y00493999*
X00601994*
X0060366Y00495665*
Y00497332*
X00601994Y00498997*
X00596996*
X00550999Y00602999D02*
Y00612996D01*
X00555997*
X00557663Y0061133*
Y00607997*
X00555997Y00606331*
X00550999*
X00554331D02*
X00557663Y00602999D01*
X0056766Y00612996D02*
X00560996D01*
Y00607997*
X00564328Y00609663*
X00565994*
X0056766Y00607997*
Y00604665*
X00565994Y00602999*
X00562662*
X00560996Y00604665*
X00326999Y00477999D02*
Y00487996D01*
X00331997*
X00333664Y0048633*
Y00482997*
X00331997Y00481331*
X00326999*
X00330331D02*
X00333664Y00477999D01*
X00336996Y0048633D02*
X00338662Y00487996D01*
X00341994*
X0034366Y0048633*
Y00484663*
X00341994Y00482997*
X00340328*
X00341994*
X0034366Y00481331*
Y00479665*
X00341994Y00477999*
X00338662*
X00336996Y00479665*
X00331999Y00421999D02*
Y00431996D01*
X00336997*
X00338664Y0043033*
Y00426997*
X00336997Y00425331*
X00331999*
X00335331D02*
X00338664Y00421999D01*
X0034866D02*
X00341996D01*
X0034866Y00428664*
Y0043033*
X00346994Y00431996*
X00343662*
X00341996Y0043033*
X00336999Y00283999D02*
Y00293996D01*
X00341997*
X00343664Y0029233*
Y00288997*
X00341997Y00287331*
X00336999*
X00340331D02*
X00343664Y00283999D01*
X00346996D02*
X00350328D01*
X00348662*
Y00293996*
X00346996Y0029233*
X00667663Y00500665D02*
Y0050733D01*
X00665997Y00508996*
X00662665*
X00660999Y0050733*
Y00500665*
X00662665Y00498999*
X00665997*
X00664331Y00502331D02*
X00667663Y00498999D01*
X00665997D02*
X00667663Y00500665D01*
X00675994Y00498999D02*
Y00508996D01*
X00670996Y00503997*
X0067766*
X00547663Y00501665D02*
Y0050833D01*
X00545997Y00509996*
X00542665*
X00540999Y0050833*
Y00501665*
X00542665Y00499999*
X00545997*
X00544331Y00503331D02*
X00547663Y00499999D01*
X00545997D02*
X00547663Y00501665D01*
X00550996Y0050833D02*
X00552662Y00509996D01*
X00555994*
X0055766Y0050833*
Y00506664*
X00555994Y00504997*
X00554328*
X00555994*
X0055766Y00503331*
Y00501665*
X00555994Y00499999*
X00552662*
X00550996Y00501665*
X00510891Y00607779D02*
Y00614444D01*
X00509225Y0061611*
X00505893*
X00504227Y00614444*
Y00607779*
X00505893Y00606113*
X00509225*
X00507559Y00609445D02*
X00510891Y00606113D01*
X00509225D02*
X00510891Y00607779D01*
X00520888Y00606113D02*
X00514224D01*
X00520888Y00612778*
Y00614444*
X00519222Y0061611*
X0051589*
X00514224Y00614444*
X00397862Y00607779D02*
Y00614444D01*
X00396195Y0061611*
X00392863*
X00391197Y00614444*
Y00607779*
X00392863Y00606113*
X00396195*
X00394529Y00609445D02*
X00397862Y00606113D01*
X00396195D02*
X00397862Y00607779D01*
X00401194Y00606113D02*
X00404526D01*
X0040286*
Y0061611*
X00401194Y00614444*
X00778663Y00088996D02*
X00775331D01*
X00776997*
Y00080665*
X00775331Y00078999*
X00773665*
X00771999Y00080665*
X00781996Y00078999D02*
Y00088996D01*
X00786994*
X0078866Y0008733*
Y00083997*
X00786994Y00082331*
X00781996*
X00798657Y00078999D02*
X00791993D01*
X00798657Y00085664*
Y0008733*
X00796991Y00088996*
X00793659*
X00791993Y0008733*
X00773823Y00281096D02*
X00770491D01*
X00772157*
Y00272765*
X00770491Y00271099*
X00768825*
X00767159Y00272765*
X00777156Y00271099D02*
Y00281096D01*
X00782154*
X0078382Y0027943*
Y00276098*
X00782154Y00274431*
X00777156*
X00787152Y00271099D02*
X00790485D01*
X00788819*
Y00281096*
X00787152Y0027943*
X00173209Y00421476D02*
X00176541D01*
X00174875*
Y0041148*
X00173209*
X00176541*
X00188204Y0041981D02*
X00186538Y00421476D01*
X00183206*
X0018154Y0041981*
Y00413145*
X00183206Y0041148*
X00186538*
X00188204Y00413145*
X00196535Y0041148D02*
Y00421476D01*
X00191536Y00416477*
X00198201*
X00851999Y00228996D02*
X00855331D01*
X00853665*
Y00218999*
X00851999*
X00855331*
X00866994Y0022733D02*
X00865328Y00228996D01*
X00861996*
X0086033Y0022733*
Y00220665*
X00861996Y00218999*
X00865328*
X00866994Y00220665*
X00870326Y0022733D02*
X00871993Y00228996D01*
X00875325*
X00876991Y0022733*
Y00225664*
X00875325Y00223997*
X00873659*
X00875325*
X00876991Y00222331*
Y00220665*
X00875325Y00218999*
X00871993*
X00870326Y00220665*
X00704999Y00411996D02*
X00708331D01*
X00706665*
Y00401999*
X00704999*
X00708331*
X00719994Y0041033D02*
X00718328Y00411996D01*
X00714996*
X0071333Y0041033*
Y00403665*
X00714996Y00401999*
X00718328*
X00719994Y00403665*
X00729991Y00401999D02*
X00723326D01*
X00729991Y00408664*
Y0041033*
X00728325Y00411996*
X00724993*
X00723326Y0041033*
X00238995Y00427064D02*
X00242327D01*
X00240661*
Y00417068*
X00238995*
X00242327*
X0025399Y00425398D02*
X00252324Y00427064D01*
X00248992*
X00247326Y00425398*
Y00418733*
X00248992Y00417068*
X00252324*
X0025399Y00418733*
X00257322Y00417068D02*
X00260655D01*
X00258989*
Y00427064*
X00257322Y00425398*
X00373249Y00438876D02*
Y00428879D01*
X00378247*
X00379914Y00430545*
Y0043721*
X00378247Y00438876*
X00373249*
X0038991Y00428879D02*
X00383246D01*
X0038991Y00435544*
Y0043721*
X00388244Y00438876*
X00384912*
X00383246Y0043721*
X00627663Y0014533D02*
X00625997Y00146996D01*
X00622665*
X00620999Y0014533*
Y00138665*
X00622665Y00136999*
X00625997*
X00627663Y00138665*
X0063766Y00136999D02*
X00630996D01*
X0063766Y00143664*
Y0014533*
X00635994Y00146996*
X00632662*
X00630996Y0014533*
X00645991Y00136999D02*
Y00146996D01*
X00640993Y00141997*
X00647657*
X00579663Y0034733D02*
X00577997Y00348996D01*
X00574665*
X00572999Y0034733*
Y00340665*
X00574665Y00338999*
X00577997*
X00579663Y00340665*
X00589661Y00338999D02*
X00582996D01*
X00589661Y00345663*
Y0034733*
X00587994Y00348996*
X00584662*
X00582996Y0034733*
X00592993D02*
X00594659Y00348996D01*
X00597991*
X00599657Y0034733*
Y00345663*
X00597991Y00343997*
X00596325*
X00597991*
X00599657Y00342331*
Y00340665*
X00597991Y00338999*
X00594659*
X00592993Y00340665*
X00768668Y00122663D02*
X00767002Y00120997D01*
Y00117665*
X00768668Y00115999*
X00775333*
X00776999Y00117665*
Y00120997*
X00775333Y00122663*
X00776999Y0013266D02*
Y00125996D01*
X00770334Y0013266*
X00768668*
X00767002Y00130994*
Y00127662*
X00768668Y00125996*
X00776999Y00142657D02*
Y00135993D01*
X00770334Y00142657*
X00768668*
X00767002Y00140991*
Y00137659*
X00768668Y00135993*
X00732663Y0029233D02*
X00730997Y00293996D01*
X00727665*
X00725999Y0029233*
Y00285665*
X00727665Y00283999*
X00730997*
X00732663Y00285665*
X0074266Y00283999D02*
X00735996D01*
X0074266Y00290664*
Y0029233*
X00740994Y00293996*
X00737662*
X00735996Y0029233*
X00745993Y00283999D02*
X00749325D01*
X00747659*
Y00293996*
X00745993Y0029233*
X00134663Y0040133D02*
X00132997Y00402996D01*
X00129665*
X00127999Y0040133*
Y00394665*
X00129665Y00392999*
X00132997*
X00134663Y00394665*
X0014466Y00392999D02*
X00137996D01*
X0014466Y00399663*
Y0040133*
X00142994Y00402996*
X00139662*
X00137996Y0040133*
X00147993D02*
X00149659Y00402996D01*
X00152991*
X00154657Y0040133*
Y00394665*
X00152991Y00392999*
X00149659*
X00147993Y00394665*
Y0040133*
X00471664Y0022933D02*
X00469997Y00230996D01*
X00466665*
X00464999Y0022933*
Y00222665*
X00466665Y00220999*
X00469997*
X00471664Y00222665*
X00474996Y00220999D02*
X00478328D01*
X00476662*
Y00230996*
X00474996Y0022933*
X00483326Y00222665D02*
X00484993Y00220999D01*
X00488325*
X00489991Y00222665*
Y0022933*
X00488325Y00230996*
X00484993*
X00483326Y0022933*
Y00227664*
X00484993Y00225997*
X00489991*
X00468664Y0035933D02*
X00466997Y00360996D01*
X00463665*
X00461999Y0035933*
Y00352665*
X00463665Y00350999*
X00466997*
X00468664Y00352665*
X00471996Y00350999D02*
X00475328D01*
X00473662*
Y00360996*
X00471996Y0035933*
X00480326D02*
X00481992Y00360996D01*
X00485325*
X00486991Y0035933*
Y00357663*
X00485325Y00355997*
X00486991Y00354331*
Y00352665*
X00485325Y00350999*
X00481992*
X00480326Y00352665*
Y00354331*
X00481992Y00355997*
X00480326Y00357663*
Y0035933*
X00481992Y00355997D02*
X00485325D01*
X00811664Y0020933D02*
X00809997Y00210996D01*
X00806665*
X00804999Y0020933*
Y00202665*
X00806665Y00200999*
X00809997*
X00811664Y00202665*
X00814996Y00200999D02*
X00818328D01*
X00816662*
Y00210996*
X00814996Y0020933*
X00823326Y00210996D02*
X00829991D01*
Y0020933*
X00823326Y00202665*
Y00200999*
X00884664Y0026933D02*
X00882997Y00270996D01*
X00879665*
X00877999Y0026933*
Y00262665*
X00879665Y00260999*
X00882997*
X00884664Y00262665*
X00887996Y00260999D02*
X00891328D01*
X00889662*
Y00270996*
X00887996Y0026933*
X00902991Y00270996D02*
X00899659Y0026933D01*
X00896326Y00265997*
Y00262665*
X00897993Y00260999*
X00901325*
X00902991Y00262665*
Y00264331*
X00901325Y00265997*
X00896326*
X00962663Y0016433D02*
X00960997Y00165996D01*
X00957665*
X00955999Y0016433*
Y00157665*
X00957665Y00155999*
X00960997*
X00962663Y00157665*
X00965996Y00155999D02*
X00969328D01*
X00967662*
Y00165996*
X00965996Y0016433*
X00980991Y00165996D02*
X00974326D01*
Y00160997*
X00977659Y00162664*
X00979325*
X00980991Y00160997*
Y00157665*
X00979325Y00155999*
X00975993*
X00974326Y00157665*
X00961664Y0028033D02*
X00959997Y00281996D01*
X00956665*
X00954999Y0028033*
Y00273665*
X00956665Y00271999*
X00959997*
X00961664Y00273665*
X00964996Y00271999D02*
X00968328D01*
X00966662*
Y00281996*
X00964996Y0028033*
X00978325Y00271999D02*
Y00281996D01*
X00973326Y00276997*
X00979991*
X00931664Y0011333D02*
X00929997Y00114996D01*
X00926665*
X00924999Y0011333*
Y00106665*
X00926665Y00104999*
X00929997*
X00931664Y00106665*
X00934996Y00104999D02*
X00938328D01*
X00936662*
Y00114996*
X00934996Y0011333*
X00943326D02*
X00944993Y00114996D01*
X00948325*
X00949991Y0011333*
Y00111663*
X00948325Y00109997*
X00946659*
X00948325*
X00949991Y00108331*
Y00106665*
X00948325Y00104999*
X00944993*
X00943326Y00106665*
X00186664Y0028833D02*
X00184997Y00289996D01*
X00181665*
X00179999Y0028833*
Y00281665*
X00181665Y00279999*
X00184997*
X00186664Y00281665*
X00189996Y00279999D02*
X00193328D01*
X00191662*
Y00289996*
X00189996Y0028833*
X00204991Y00279999D02*
X00198326D01*
X00204991Y00286664*
Y0028833*
X00203325Y00289996*
X00199993*
X00198326Y0028833*
X00221664D02*
X00219997Y00289996D01*
X00216665*
X00214999Y0028833*
Y00281665*
X00216665Y00279999*
X00219997*
X00221664Y00281665*
X00224996Y00279999D02*
X00228328D01*
X00226662*
Y00289996*
X00224996Y0028833*
X00233326Y00279999D02*
X00236659D01*
X00234993*
Y00289996*
X00233326Y0028833*
X00406664Y0028933D02*
X00404997Y00290996D01*
X00401665*
X00399999Y0028933*
Y00282665*
X00401665Y00280999*
X00404997*
X00406664Y00282665*
X00409996Y00280999D02*
X00413328D01*
X00411662*
Y00290996*
X00409996Y0028933*
X00418326D02*
X00419993Y00290996D01*
X00423325*
X00424991Y0028933*
Y00282665*
X00423325Y00280999*
X00419993*
X00418326Y00282665*
Y0028933*
X00443664D02*
X00441997Y00290996D01*
X00438665*
X00436999Y0028933*
Y00282665*
X00438665Y00280999*
X00441997*
X00443664Y00282665*
X00446996D02*
X00448662Y00280999D01*
X00451994*
X0045366Y00282665*
Y0028933*
X00451994Y00290996*
X00448662*
X00446996Y0028933*
Y00287664*
X00448662Y00285997*
X0045366*
X00191664Y0017333D02*
X00189997Y00174996D01*
X00186665*
X00184999Y0017333*
Y00166665*
X00186665Y00164999*
X00189997*
X00191664Y00166665*
X00194996Y0017333D02*
X00196662Y00174996D01*
X00199994*
X0020166Y0017333*
Y00171664*
X00199994Y00169997*
X0020166Y00168331*
Y00166665*
X00199994Y00164999*
X00196662*
X00194996Y00166665*
Y00168331*
X00196662Y00169997*
X00194996Y00171664*
Y0017333*
X00196662Y00169997D02*
X00199994D01*
X00224663Y0017333D02*
X00222997Y00174996D01*
X00219665*
X00217999Y0017333*
Y00166665*
X00219665Y00164999*
X00222997*
X00224663Y00166665*
X00227996Y00174996D02*
X0023466D01*
Y0017333*
X00227996Y00166665*
Y00164999*
X00411664Y0017233D02*
X00409997Y00173996D01*
X00406665*
X00404999Y0017233*
Y00165665*
X00406665Y00163999*
X00409997*
X00411664Y00165665*
X0042166Y00173996D02*
X00418328Y0017233D01*
X00414996Y00168997*
Y00165665*
X00416662Y00163999*
X00419994*
X0042166Y00165665*
Y00167331*
X00419994Y00168997*
X00414996*
X00442663Y0017233D02*
X00440997Y00173996D01*
X00437665*
X00435999Y0017233*
Y00165665*
X00437665Y00163999*
X00440997*
X00442663Y00165665*
X0045266Y00173996D02*
X00445996D01*
Y00168997*
X00449328Y00170664*
X00450994*
X0045266Y00168997*
Y00165665*
X00450994Y00163999*
X00447662*
X00445996Y00165665*
X00462644Y0049597D02*
X00460977Y00497636D01*
X00457645*
X00455979Y0049597*
Y00489305*
X00457645Y00487639*
X00460977*
X00462644Y00489305*
X00470974Y00487639D02*
Y00497636D01*
X00465976Y00492637*
X0047264*
X00267664Y0034033D02*
X00265997Y00341996D01*
X00262665*
X00260999Y0034033*
Y00333665*
X00262665Y00331999*
X00265997*
X00267664Y00333665*
X00270996Y0034033D02*
X00272662Y00341996D01*
X00275994*
X0027766Y0034033*
Y00338664*
X00275994Y00336997*
X00274328*
X00275994*
X0027766Y00335331*
Y00333665*
X00275994Y00331999*
X00272662*
X00270996Y00333665*
X00186564Y0056932D02*
X00184897Y00570986D01*
X00181565*
X00179899Y0056932*
Y00562655*
X00181565Y00560989*
X00184897*
X00186564Y00562655*
X0019656Y00560989D02*
X00189896D01*
X0019656Y00567653*
Y0056932*
X00194894Y00570986*
X00191562*
X00189896Y0056932*
X00275664Y0045833D02*
X00273997Y00459996D01*
X00270665*
X00268999Y0045833*
Y00451665*
X00270665Y00449999*
X00273997*
X00275664Y00451665*
X00278996Y00449999D02*
X00282328D01*
X00280662*
Y00459996*
X00278996Y0045833*
G54D11*
X00989069Y00486879D02*
D01*
X00989057Y00487234*
X0098902Y00487586*
X00988958Y00487936*
X00988873Y0048828*
X00988763Y00488617*
X0098863Y00488946*
X00988475Y00489264*
X00988297Y00489571*
X00988099Y00489865*
X00987881Y00490145*
X00987644Y00490408*
X00987388Y00490655*
X00987117Y00490882*
X0098683Y00491091*
X00986529Y00491279*
X00986216Y00491445*
X00985892Y0049159*
X00985559Y00491711*
X00985218Y00491809*
X00984872Y00491882*
X0098452Y00491931*
X00984167Y00491956*
X00983812*
X00983458Y00491931*
X00983107Y00491882*
X0098276Y00491809*
X0098242Y00491711*
X00982086Y0049159*
X00981762Y00491445*
X00981449Y00491279*
X00981149Y00491091*
X00980862Y00490882*
X0098059Y00490655*
X00980335Y00490408*
X00980098Y00490145*
X0097988Y00489865*
X00979681Y00489571*
X00979504Y00489264*
X00979349Y00488946*
X00979216Y00488617*
X00979106Y0048828*
X0097902Y00487936*
X00978959Y00487586*
X00978922Y00487234*
X00978909Y00486879*
X00978922Y00486525*
X00978959Y00486172*
X0097902Y00485823*
X00979106Y00485479*
X00979216Y00485142*
X00979349Y00484813*
X00979504Y00484494*
X00979681Y00484188*
X0097988Y00483893*
X00980098Y00483614*
X00980335Y00483351*
X0098059Y00483104*
X00980862Y00482876*
X00981149Y00482668*
X00981449Y0048248*
X00981762Y00482313*
X00982086Y00482169*
X0098242Y00482048*
X0098276Y0048195*
X00983107Y00481877*
X00983458Y00481827*
X00983812Y00481802*
X00984167*
X0098452Y00481827*
X00984872Y00481877*
X00985218Y0048195*
X00985559Y00482048*
X00985892Y00482169*
X00986216Y00482313*
X00986529Y0048248*
X0098683Y00482668*
X00987117Y00482876*
X00987388Y00483104*
X00987644Y00483351*
X00987881Y00483614*
X00988099Y00483893*
X00988297Y00484188*
X00988475Y00484494*
X0098863Y00484813*
X00988763Y00485142*
X00988873Y00485479*
X00988958Y00485823*
X0098902Y00486172*
X00989057Y00486525*
X00989069Y00486879*
Y0043688D02*
D01*
X00989057Y00437234*
X0098902Y00437586*
X00988958Y00437936*
X00988873Y0043828*
X00988763Y00438617*
X0098863Y00438946*
X00988475Y00439264*
X00988297Y00439571*
X00988099Y00439865*
X00987881Y00440145*
X00987644Y00440408*
X00987388Y00440654*
X00987117Y00440883*
X0098683Y00441091*
X00986529Y00441279*
X00986216Y00441445*
X00985892Y00441589*
X00985559Y00441711*
X00985218Y00441808*
X00984872Y00441882*
X0098452Y00441932*
X00984167Y00441956*
X00983812*
X00983458Y00441932*
X00983107Y00441882*
X0098276Y00441808*
X0098242Y00441711*
X00982086Y00441589*
X00981762Y00441445*
X00981449Y00441279*
X00981149Y00441091*
X00980862Y00440883*
X0098059Y00440654*
X00980335Y00440408*
X00980098Y00440145*
X0097988Y00439865*
X00979681Y00439571*
X00979504Y00439264*
X00979349Y00438946*
X00979216Y00438617*
X00979106Y0043828*
X0097902Y00437936*
X00978959Y00437586*
X00978922Y00437234*
X00978909Y0043688*
X00978922Y00436525*
X00978959Y00436172*
X0097902Y00435823*
X00979106Y00435479*
X00979216Y00435142*
X00979349Y00434813*
X00979504Y00434494*
X00979681Y00434187*
X0097988Y00433893*
X00980098Y00433614*
X00980335Y0043335*
X0098059Y00433104*
X00980862Y00432876*
X00981149Y00432668*
X00981449Y0043248*
X00981762Y00432314*
X00982086Y00432169*
X0098242Y00432048*
X0098276Y0043195*
X00983107Y00431876*
X00983458Y00431827*
X00983812Y00431803*
X00984167*
X0098452Y00431827*
X00984872Y00431876*
X00985218Y0043195*
X00985559Y00432048*
X00985892Y00432169*
X00986216Y00432314*
X00986529Y0043248*
X0098683Y00432668*
X00987117Y00432876*
X00987388Y00433104*
X00987644Y0043335*
X00987881Y00433614*
X00988099Y00433893*
X00988297Y00434187*
X00988475Y00434494*
X0098863Y00434813*
X00988763Y00435142*
X00988873Y00435479*
X00988958Y00435823*
X0098902Y00436172*
X00989057Y00436525*
X00989069Y0043688*
X00989271Y00388079D02*
D01*
X00989259Y00388434*
X00989222Y00388786*
X0098916Y00389136*
X00989074Y0038948*
X00988965Y00389817*
X00988832Y00390146*
X00988677Y00390464*
X00988499Y00390771*
X00988301Y00391065*
X00988083Y00391345*
X00987846Y00391608*
X00987591Y00391854*
X00987319Y00392083*
X00987032Y00392291*
X00986731Y00392479*
X00986418Y00392645*
X00986094Y00392789*
X00985761Y00392911*
X0098542Y00393008*
X00985073Y00393082*
X00984722Y00393132*
X00984369Y00393156*
X00984014*
X0098366Y00393132*
X00983309Y00393082*
X00982962Y00393008*
X00982622Y00392911*
X00982288Y00392789*
X00981965Y00392645*
X00981651Y00392479*
X00981351Y00392291*
X00981064Y00392083*
X00980792Y00391854*
X00980537Y00391608*
X009803Y00391345*
X00980082Y00391065*
X00979883Y00390771*
X00979706Y00390464*
X00979551Y00390146*
X00979418Y00389817*
X00979308Y0038948*
X00979222Y00389136*
X00979161Y00388786*
X00979124Y00388434*
X00979111Y00388079*
X00979124Y00387725*
X00979161Y00387372*
X00979222Y00387023*
X00979308Y00386679*
X00979418Y00386342*
X00979551Y00386013*
X00979706Y00385694*
X00979883Y00385387*
X00980082Y00385093*
X009803Y00384814*
X00980537Y0038455*
X00980792Y00384304*
X00981064Y00384076*
X00981351Y00383868*
X00981651Y0038368*
X00981965Y00383514*
X00982288Y00383369*
X00982622Y00383248*
X00982962Y0038315*
X00983309Y00383076*
X0098366Y00383027*
X00984014Y00383003*
X00984369*
X00984722Y00383027*
X00985073Y00383076*
X0098542Y0038315*
X00985761Y00383248*
X00986094Y00383369*
X00986418Y00383514*
X00986731Y0038368*
X00987032Y00383868*
X00987319Y00384076*
X00987591Y00384304*
X00987846Y0038455*
X00988083Y00384814*
X00988301Y00385093*
X00988499Y00385387*
X00988677Y00385694*
X00988832Y00386013*
X00988965Y00386342*
X00989074Y00386679*
X0098916Y00387023*
X00989222Y00387372*
X00989259Y00387725*
X00989271Y00388079*
X00185655Y00359918D02*
D01*
X00185644Y00360236*
X00185611Y00360554*
X00185555Y00360868*
X00185478Y00361178*
X0018538Y00361481*
X0018526Y00361777*
X0018512Y00362064*
X00184961Y0036234*
X00184782Y00362605*
X00184586Y00362856*
X00184372Y00363093*
X00184143Y00363315*
X00183898Y0036352*
X0018364Y00363708*
X00183369Y00363877*
X00183088Y00364027*
X00182796Y00364157*
X00182496Y00364266*
X00182189Y00364354*
X00181877Y0036442*
X00181561Y00364464*
X00181243Y00364487*
X00180924*
X00180605Y00364464*
X00180289Y0036442*
X00179977Y00364354*
X0017967Y00364266*
X00179371Y00364157*
X00179079Y00364027*
X00178797Y00363877*
X00178527Y00363708*
X00178269Y0036352*
X00178024Y00363315*
X00177795Y00363093*
X00177581Y00362856*
X00177384Y00362605*
X00177206Y0036234*
X00177047Y00362064*
X00176907Y00361777*
X00176787Y00361481*
X00176689Y00361178*
X00176611Y00360868*
X00176556Y00360554*
X00176522Y00360236*
X00176511Y00359918*
X00176522Y00359598*
X00176556Y00359281*
X00176611Y00358967*
X00176689Y00358657*
X00176787Y00358354*
X00176907Y00358058*
X00177047Y00357771*
X00177206Y00357495*
X00177384Y0035723*
X00177581Y00356978*
X00177795Y00356741*
X00178024Y0035652*
X00178269Y00356315*
X00178527Y00356127*
X00178797Y00355958*
X00179079Y00355808*
X00179371Y00355678*
X0017967Y00355569*
X00179977Y00355481*
X00180289Y00355415*
X00180605Y0035537*
X00180924Y00355348*
X00181243*
X00181561Y0035537*
X00181877Y00355415*
X00182189Y00355481*
X00182496Y00355569*
X00182796Y00355678*
X00183088Y00355808*
X00183369Y00355958*
X0018364Y00356127*
X00183898Y00356315*
X00184143Y0035652*
X00184372Y00356741*
X00184586Y00356978*
X00184782Y0035723*
X00184961Y00357495*
X0018512Y00357771*
X0018526Y00358058*
X0018538Y00358354*
X00185478Y00358657*
X00185555Y00358967*
X00185611Y00359281*
X00185644Y00359598*
X00185655Y00359918*
X00035327Y0037782D02*
D01*
X00035315Y00378175*
X00035278Y00378527*
X00035216Y00378877*
X0003513Y0037922*
X00035021Y00379558*
X00034888Y00379886*
X00034733Y00380205*
X00034555Y00380512*
X00034357Y00380806*
X00034139Y00381086*
X00033902Y00381349*
X00033647Y00381596*
X00033375Y00381823*
X00033088Y00382032*
X00032787Y0038222*
X00032474Y00382386*
X0003215Y0038253*
X00031817Y00382652*
X00031476Y0038275*
X00031129Y00382823*
X00030778Y00382872*
X00030425Y00382897*
X0003007*
X00029716Y00382872*
X00029365Y00382823*
X00029018Y0038275*
X00028678Y00382652*
X00028344Y0038253*
X00028021Y00382386*
X00027707Y0038222*
X00027407Y00382032*
X0002712Y00381823*
X00026848Y00381596*
X00026593Y00381349*
X00026356Y00381086*
X00026138Y00380806*
X00025939Y00380512*
X00025762Y00380205*
X00025607Y00379886*
X00025474Y00379558*
X00025364Y0037922*
X00025278Y00378877*
X00025217Y00378527*
X0002518Y00378175*
X00025167Y0037782*
X0002518Y00377466*
X00025217Y00377113*
X00025278Y00376764*
X00025364Y0037642*
X00025474Y00376083*
X00025607Y00375754*
X00025762Y00375435*
X00025939Y00375128*
X00026138Y00374834*
X00026356Y00374555*
X00026593Y00374292*
X00026848Y00374045*
X0002712Y00373817*
X00027407Y00373609*
X00027707Y00373421*
X00028021Y00373255*
X00028344Y0037311*
X00028678Y00372989*
X00029018Y00372891*
X00029365Y00372818*
X00029716Y00372768*
X0003007Y00372743*
X00030425*
X00030778Y00372768*
X00031129Y00372818*
X00031476Y00372891*
X00031817Y00372989*
X0003215Y0037311*
X00032474Y00373255*
X00032787Y00373421*
X00033088Y00373609*
X00033375Y00373817*
X00033647Y00374045*
X00033902Y00374292*
X00034139Y00374555*
X00034357Y00374834*
X00034555Y00375128*
X00034733Y00375435*
X00034888Y00375754*
X00035021Y00376083*
X0003513Y0037642*
X00035216Y00376764*
X00035278Y00377113*
X00035315Y00377466*
X00035327Y0037782*
X00035529Y0032902D02*
D01*
X00035517Y00329375*
X0003548Y00329727*
X00035418Y00330077*
X00035333Y00330421*
X00035223Y00330758*
X0003509Y00331087*
X00034935Y00331405*
X00034757Y00331712*
X00034559Y00332006*
X00034341Y00332286*
X00034104Y00332549*
X00033849Y00332796*
X00033577Y00333023*
X0003329Y00333232*
X00032989Y0033342*
X00032676Y00333586*
X00032352Y0033373*
X00032019Y00333852*
X00031678Y0033395*
X00031331Y00334023*
X0003098Y00334072*
X00030627Y00334097*
X00030272*
X00029918Y00334072*
X00029567Y00334023*
X0002922Y0033395*
X0002888Y00333852*
X00028546Y0033373*
X00028222Y00333586*
X00027909Y0033342*
X00027609Y00333232*
X00027322Y00333023*
X0002705Y00332796*
X00026795Y00332549*
X00026558Y00332286*
X0002634Y00332006*
X00026141Y00331712*
X00025964Y00331405*
X00025808Y00331087*
X00025676Y00330758*
X00025566Y00330421*
X0002548Y00330077*
X00025419Y00329727*
X00025382Y00329375*
X00025369Y0032902*
X00025382Y00328666*
X00025419Y00328313*
X0002548Y00327964*
X00025566Y0032762*
X00025676Y00327283*
X00025808Y00326954*
X00025964Y00326635*
X00026141Y00326328*
X0002634Y00326034*
X00026558Y00325755*
X00026795Y00325492*
X0002705Y00325245*
X00027322Y00325017*
X00027609Y00324809*
X00027909Y00324621*
X00028222Y00324455*
X00028546Y0032431*
X0002888Y00324189*
X0002922Y00324091*
X00029567Y00324018*
X00029918Y00323968*
X00030272Y00323943*
X00030627*
X0003098Y00323968*
X00031331Y00324018*
X00031678Y00324091*
X00032019Y00324189*
X00032352Y0032431*
X00032676Y00324455*
X00032989Y00324621*
X0003329Y00324809*
X00033577Y00325017*
X00033849Y00325245*
X00034104Y00325492*
X00034341Y00325755*
X00034559Y00326034*
X00034757Y00326328*
X00034935Y00326635*
X0003509Y00326954*
X00035223Y00327283*
X00035333Y0032762*
X00035418Y00327964*
X0003548Y00328313*
X00035517Y00328666*
X00035529Y0032902*
Y0027902D02*
D01*
X00035517Y00279375*
X0003548Y00279727*
X00035418Y00280077*
X00035333Y00280421*
X00035223Y00280758*
X0003509Y00281087*
X00034935Y00281405*
X00034757Y00281712*
X00034559Y00282006*
X00034341Y00282286*
X00034104Y00282549*
X00033849Y00282795*
X00033577Y00283024*
X0003329Y00283232*
X00032989Y0028342*
X00032676Y00283586*
X00032352Y0028373*
X00032019Y00283852*
X00031678Y00283949*
X00031331Y00284023*
X0003098Y00284073*
X00030627Y00284097*
X00030272*
X00029918Y00284073*
X00029567Y00284023*
X0002922Y00283949*
X0002888Y00283852*
X00028546Y0028373*
X00028222Y00283586*
X00027909Y0028342*
X00027609Y00283232*
X00027322Y00283024*
X0002705Y00282795*
X00026795Y00282549*
X00026558Y00282286*
X0002634Y00282006*
X00026141Y00281712*
X00025964Y00281405*
X00025808Y00281087*
X00025676Y00280758*
X00025566Y00280421*
X0002548Y00280077*
X00025419Y00279727*
X00025382Y00279375*
X00025369Y0027902*
X00025382Y00278666*
X00025419Y00278313*
X0002548Y00277964*
X00025566Y0027762*
X00025676Y00277283*
X00025808Y00276954*
X00025964Y00276635*
X00026141Y00276328*
X0002634Y00276035*
X00026558Y00275755*
X00026795Y00275491*
X0002705Y00275245*
X00027322Y00275017*
X00027609Y00274809*
X00027909Y00274621*
X00028222Y00274454*
X00028546Y0027431*
X0002888Y00274189*
X0002922Y00274091*
X00029567Y00274017*
X00029918Y00273968*
X00030272Y00273944*
X00030627*
X0003098Y00273968*
X00031331Y00274017*
X00031678Y00274091*
X00032019Y00274189*
X00032352Y0027431*
X00032676Y00274454*
X00032989Y00274621*
X0003329Y00274809*
X00033577Y00275017*
X00033849Y00275245*
X00034104Y00275491*
X00034341Y00275755*
X00034559Y00276035*
X00034757Y00276328*
X00034935Y00276635*
X0003509Y00276954*
X00035223Y00277283*
X00035333Y0027762*
X00035418Y00277964*
X0003548Y00278313*
X00035517Y00278666*
X00035529Y0027902*
Y0022902D02*
D01*
X00035517Y00229375*
X0003548Y00229727*
X00035418Y00230077*
X00035333Y00230421*
X00035223Y00230758*
X0003509Y00231087*
X00034935Y00231405*
X00034757Y00231712*
X00034559Y00232006*
X00034341Y00232286*
X00034104Y00232549*
X00033849Y00232796*
X00033577Y00233023*
X0003329Y00233232*
X00032989Y0023342*
X00032676Y00233586*
X00032352Y00233731*
X00032019Y00233852*
X00031678Y0023395*
X00031331Y00234023*
X0003098Y00234072*
X00030627Y00234097*
X00030272*
X00029918Y00234072*
X00029567Y00234023*
X0002922Y0023395*
X0002888Y00233852*
X00028546Y00233731*
X00028222Y00233586*
X00027909Y0023342*
X00027609Y00233232*
X00027322Y00233023*
X0002705Y00232796*
X00026795Y00232549*
X00026558Y00232286*
X0002634Y00232006*
X00026141Y00231712*
X00025964Y00231405*
X00025808Y00231087*
X00025676Y00230758*
X00025566Y00230421*
X0002548Y00230077*
X00025419Y00229727*
X00025382Y00229375*
X00025369Y0022902*
X00025382Y00228666*
X00025419Y00228313*
X0002548Y00227964*
X00025566Y0022762*
X00025676Y00227283*
X00025808Y00226954*
X00025964Y00226636*
X00026141Y00226328*
X0002634Y00226034*
X00026558Y00225755*
X00026795Y00225492*
X0002705Y00225245*
X00027322Y00225017*
X00027609Y00224809*
X00027909Y00224621*
X00028222Y00224454*
X00028546Y0022431*
X0002888Y00224189*
X0002922Y00224091*
X00029567Y00224018*
X00029918Y00223968*
X00030272Y00223943*
X00030627*
X0003098Y00223968*
X00031331Y00224018*
X00031678Y00224091*
X00032019Y00224189*
X00032352Y0022431*
X00032676Y00224454*
X00032989Y00224621*
X0003329Y00224809*
X00033577Y00225017*
X00033849Y00225245*
X00034104Y00225492*
X00034341Y00225755*
X00034559Y00226034*
X00034757Y00226328*
X00034935Y00226636*
X0003509Y00226954*
X00035223Y00227283*
X00035333Y0022762*
X00035418Y00227964*
X0003548Y00228313*
X00035517Y00228666*
X00035529Y0022902*
Y00487999D02*
D01*
X00035517Y00488354*
X0003548Y00488706*
X00035418Y00489056*
X00035333Y004894*
X00035223Y00489737*
X0003509Y00490066*
X00034935Y00490384*
X00034757Y00490691*
X00034559Y00490985*
X00034341Y00491265*
X00034104Y00491528*
X00033849Y00491774*
X00033577Y00492003*
X0003329Y00492211*
X00032989Y00492399*
X00032676Y00492565*
X00032352Y00492709*
X00032019Y00492831*
X00031678Y00492928*
X00031331Y00493002*
X0003098Y00493052*
X00030627Y00493076*
X00030272*
X00029918Y00493052*
X00029567Y00493002*
X0002922Y00492928*
X0002888Y00492831*
X00028546Y00492709*
X00028222Y00492565*
X00027909Y00492399*
X00027609Y00492211*
X00027322Y00492003*
X0002705Y00491774*
X00026795Y00491528*
X00026558Y00491265*
X0002634Y00490985*
X00026141Y00490691*
X00025964Y00490384*
X00025808Y00490066*
X00025676Y00489737*
X00025566Y004894*
X0002548Y00489056*
X00025419Y00488706*
X00025382Y00488354*
X00025369Y00487999*
X00025382Y00487645*
X00025419Y00487292*
X0002548Y00486943*
X00025566Y00486599*
X00025676Y00486262*
X00025808Y00485933*
X00025964Y00485614*
X00026141Y00485307*
X0002634Y00485014*
X00026558Y00484734*
X00026795Y0048447*
X0002705Y00484224*
X00027322Y00483996*
X00027609Y00483788*
X00027909Y004836*
X00028222Y00483433*
X00028546Y00483289*
X0002888Y00483168*
X0002922Y0048307*
X00029567Y00482997*
X00029918Y00482947*
X00030272Y00482923*
X00030627*
X0003098Y00482947*
X00031331Y00482997*
X00031678Y0048307*
X00032019Y00483168*
X00032352Y00483289*
X00032676Y00483433*
X00032989Y004836*
X0003329Y00483788*
X00033577Y00483996*
X00033849Y00484224*
X00034104Y0048447*
X00034341Y00484734*
X00034559Y00485014*
X00034757Y00485307*
X00034935Y00485614*
X0003509Y00485933*
X00035223Y00486262*
X00035333Y00486599*
X00035418Y00486943*
X0003548Y00487292*
X00035517Y00487645*
X00035529Y00487999*
X00035327Y00536799D02*
D01*
X00035315Y00537154*
X00035278Y00537506*
X00035216Y00537856*
X0003513Y005382*
X00035021Y00538537*
X00034888Y00538866*
X00034733Y00539184*
X00034555Y00539491*
X00034357Y00539785*
X00034139Y00540065*
X00033902Y00540328*
X00033647Y00540574*
X00033375Y00540803*
X00033088Y00541011*
X00032787Y00541199*
X00032474Y00541365*
X0003215Y00541509*
X00031817Y00541631*
X00031476Y00541728*
X00031129Y00541802*
X00030778Y00541852*
X00030425Y00541876*
X0003007*
X00029716Y00541852*
X00029365Y00541802*
X00029018Y00541728*
X00028678Y00541631*
X00028344Y00541509*
X00028021Y00541365*
X00027707Y00541199*
X00027407Y00541011*
X0002712Y00540803*
X00026848Y00540574*
X00026593Y00540328*
X00026356Y00540065*
X00026138Y00539785*
X00025939Y00539491*
X00025762Y00539184*
X00025607Y00538866*
X00025474Y00538537*
X00025364Y005382*
X00025278Y00537856*
X00025217Y00537506*
X0002518Y00537154*
X00025167Y00536799*
X0002518Y00536445*
X00025217Y00536092*
X00025278Y00535743*
X00025364Y00535399*
X00025474Y00535062*
X00025607Y00534733*
X00025762Y00534414*
X00025939Y00534107*
X00026138Y00533814*
X00026356Y00533534*
X00026593Y0053327*
X00026848Y00533024*
X0002712Y00532796*
X00027407Y00532588*
X00027707Y005324*
X00028021Y00532233*
X00028344Y00532089*
X00028678Y00531968*
X00029018Y0053187*
X00029365Y00531797*
X00029716Y00531747*
X0003007Y00531723*
X00030425*
X00030778Y00531747*
X00031129Y00531797*
X00031476Y0053187*
X00031817Y00531968*
X0003215Y00532089*
X00032474Y00532233*
X00032787Y005324*
X00033088Y00532588*
X00033375Y00532796*
X00033647Y00533024*
X00033902Y0053327*
X00034139Y00533534*
X00034357Y00533814*
X00034555Y00534107*
X00034733Y00534414*
X00034888Y00534733*
X00035021Y00535062*
X0003513Y00535399*
X00035216Y00535743*
X00035278Y00536092*
X00035315Y00536445*
X00035327Y00536799*
X00992989Y00363189D02*
Y00511879D01*
X00971019D02*
X00992713D01*
X00923989Y00363189D02*
Y00511879D01*
X00908989D02*
X00924989D01*
X00908989D02*
X00971019D01*
X00908989Y00361879D02*
X00923989D01*
X00908989D02*
X00971019D01*
X00992989*
X00908989Y00363189D02*
Y00511879D01*
X00771649Y00190299D02*
X00784349D01*
X00771649Y00241099D02*
X00784349D01*
X00771649Y00215699D02*
X00784349D01*
X00771649Y00266499D02*
X00784349D01*
X00786574Y00264274*
X00769674Y00264524D02*
X00771649Y00266499D01*
X00784349Y00164899D02*
X00786574Y00167124D01*
X00771649Y00164899D02*
X00784349D01*
X00769174Y00167374D02*
X00771649Y00164899D01*
X00797899Y00099839D02*
Y00120159D01*
X00823299Y00099839D02*
Y00120159D01*
X00814409Y00090949D02*
X00823299Y00099839D01*
X00814409Y00129049D02*
X00823299Y00120159D01*
X00806789Y00129049D02*
X00814409D01*
X00806789Y00090949D02*
X00814409D01*
X00797899Y00099839D02*
X00806789Y00090949D01*
X00797899Y00120159D02*
X00806789Y00129049D01*
X00823299Y00099839D02*
Y00120159D01*
X00848699Y00099839D02*
Y00120159D01*
X00839809Y00090949D02*
X00848699Y00099839D01*
X00839809Y00129049D02*
X00848699Y00120159D01*
X00832189Y00129049D02*
X00839809D01*
X00832189Y00090949D02*
X00839809D01*
X00823299Y00099839D02*
X00832189Y00090949D01*
X00823299Y00120159D02*
X00832189Y00129049D01*
X00848699Y00120159D02*
X00857589Y00129049D01*
X00848699Y00099839D02*
X00857589Y00090949D01*
X00865209*
X00857589Y00129049D02*
X00865209D01*
X00874099Y00120159*
X00865209Y00090949D02*
X00874099Y00099839D01*
Y00120159*
X00848699Y00099839D02*
Y00120159D01*
X00172193Y00349281D02*
X00222485D01*
Y0039497*
X00172193D02*
X00222485D01*
X00172193Y00349281D02*
Y0039497D01*
X00111449Y0020402D02*
Y0040402D01*
X00021449D02*
X00111449D01*
X00090449Y0020402D02*
Y0040402D01*
X00021449Y0020402D02*
Y0040402D01*
Y00462999D02*
Y00561689D01*
X00022725Y00462999D02*
X00043419D01*
X00105449*
X00090449Y00562999D02*
X00105449D01*
X00043419D02*
X00105449D01*
X00021449D02*
X00043419D01*
X00105449Y00462999D02*
Y00561689D01*
X00090449Y00462999D02*
Y00561689D01*
Y00462999D02*
X00105449D01*
X00021449D02*
X00022725D01*
G54D12*
X00343545Y0015113D02*
D01*
X00343533Y00151494*
X00343494Y00151858*
X00343431Y00152218*
X00343342Y00152573*
X0034323Y0015292*
X00343093Y00153259*
X00342933Y00153587*
X0034275Y00153904*
X00342545Y00154207*
X0034232Y00154495*
X00342076Y00154767*
X00341813Y00155021*
X00341533Y00155255*
X00341237Y0015547*
X00340927Y00155664*
X00340605Y00155835*
X00340271Y00155984*
X00339927Y00156109*
X00339576Y0015621*
X00339219Y00156286*
X00338857Y00156337*
X00338492Y00156362*
X00338127*
X00337762Y00156337*
X003374Y00156286*
X00337043Y0015621*
X00336691Y00156109*
X00336348Y00155984*
X00336014Y00155835*
X00335691Y00155664*
X00335381Y0015547*
X00335086Y00155255*
X00334806Y00155021*
X00334543Y00154767*
X00334298Y00154495*
X00334073Y00154207*
X00333869Y00153904*
X00333686Y00153587*
X00333526Y00153259*
X00333389Y0015292*
X00333276Y00152573*
X00333188Y00152218*
X00333124Y00151858*
X00333086Y00151494*
X00333073Y0015113*
X00333086Y00150764*
X00333124Y00150401*
X00333188Y00150041*
X00333276Y00149686*
X00333389Y00149339*
X00333526Y00149*
X00333686Y00148671*
X00333869Y00148355*
X00334073Y00148052*
X00334298Y00147764*
X00334543Y00147492*
X00334806Y00147238*
X00335086Y00147003*
X00335381Y00146789*
X00335691Y00146595*
X00336014Y00146423*
X00336348Y00146275*
X00336691Y0014615*
X00337043Y00146049*
X003374Y00145973*
X00337762Y00145922*
X00338127Y00145897*
X00338492*
X00338857Y00145922*
X00339219Y00145973*
X00339576Y00146049*
X00339927Y0014615*
X00340271Y00146275*
X00340605Y00146423*
X00340927Y00146595*
X00341237Y00146789*
X00341533Y00147003*
X00341813Y00147238*
X00342076Y00147492*
X0034232Y00147764*
X00342545Y00148052*
X0034275Y00148355*
X00342933Y00148671*
X00343093Y00149*
X0034323Y00149339*
X00343342Y00149686*
X00343431Y00150041*
X00343494Y00150401*
X00343533Y00150764*
X00343545Y0015113*
G54D13*
X00607499Y00266499D02*
D01*
X00607492Y00266709*
X0060747Y00266917*
X00607434Y00267123*
X00607383Y00267326*
X00607318Y00267526*
X0060724Y0026772*
X00607148Y00267908*
X00607043Y00268089*
X00606926Y00268263*
X00606798Y00268428*
X00606657Y00268583*
X00606507Y00268729*
X00606346Y00268863*
X00606177Y00268987*
X00605999Y00269098*
X00605814Y00269196*
X00605623Y00269281*
X00605427Y00269353*
X00605225Y0026941*
X0060502Y00269454*
X00604813Y00269483*
X00604604Y00269498*
X00604395*
X00604186Y00269483*
X00603978Y00269454*
X00603774Y0026941*
X00603572Y00269353*
X00603375Y00269281*
X00603184Y00269196*
X00602999Y00269098*
X00602822Y00268987*
X00602652Y00268863*
X00602492Y00268729*
X00602341Y00268583*
X00602201Y00268428*
X00602072Y00268263*
X00601955Y00268089*
X0060185Y00267908*
X00601759Y0026772*
X0060168Y00267526*
X00601616Y00267326*
X00601565Y00267123*
X00601529Y00266917*
X00601507Y00266709*
X00601499Y00266499*
X00601507Y0026629*
X00601529Y00266082*
X00601565Y00265876*
X00601616Y00265673*
X0060168Y00265473*
X00601759Y00265279*
X0060185Y00265091*
X00601955Y0026491*
X00602072Y00264736*
X00602201Y00264571*
X00602341Y00264415*
X00602492Y0026427*
X00602652Y00264135*
X00602822Y00264012*
X00602999Y00263901*
X00603184Y00263803*
X00603375Y00263718*
X00603572Y00263646*
X00603774Y00263589*
X00603978Y00263545*
X00604186Y00263516*
X00604395Y00263501*
X00604604*
X00604813Y00263516*
X0060502Y00263545*
X00605225Y00263589*
X00605427Y00263646*
X00605623Y00263718*
X00605814Y00263803*
X00605999Y00263901*
X00606177Y00264012*
X00606346Y00264135*
X00606507Y0026427*
X00606657Y00264415*
X00606798Y00264571*
X00606926Y00264736*
X00607043Y0026491*
X00607148Y00265091*
X0060724Y00265279*
X00607318Y00265473*
X00607383Y00265673*
X00607434Y00265876*
X0060747Y00266082*
X00607492Y0026629*
X00607499Y00266499*
G54D14*
X00582749Y00278499D02*
D01*
X00582746Y00278586*
X00582737Y00278673*
X00582722Y00278759*
X00582701Y00278844*
X00582674Y00278927*
X00582641Y00279008*
X00582603Y00279086*
X00582559Y00279162*
X00582511Y00279234*
X00582457Y00279303*
X00582399Y00279368*
X00582336Y00279428*
X00582269Y00279484*
X00582198Y00279536*
X00582124Y00279582*
X00582047Y00279623*
X00581968Y00279658*
X00581886Y00279688*
X00581802Y00279712*
X00581716Y0027973*
X0058163Y00279742*
X00581543Y00279748*
X00581456*
X00581369Y00279742*
X00581282Y0027973*
X00581197Y00279712*
X00581113Y00279688*
X00581031Y00279658*
X00580951Y00279623*
X00580874Y00279582*
X005808Y00279536*
X0058073Y00279484*
X00580663Y00279428*
X005806Y00279368*
X00580542Y00279303*
X00580488Y00279234*
X00580439Y00279162*
X00580396Y00279086*
X00580357Y00279008*
X00580325Y00278927*
X00580298Y00278844*
X00580277Y00278759*
X00580261Y00278673*
X00580252Y00278586*
X00580249Y00278499*
X00580252Y00278412*
X00580261Y00278325*
X00580277Y00278239*
X00580298Y00278155*
X00580325Y00278072*
X00580357Y00277991*
X00580396Y00277913*
X00580439Y00277837*
X00580488Y00277765*
X00580542Y00277696*
X005806Y00277631*
X00580663Y0027757*
X0058073Y00277514*
X005808Y00277463*
X00580874Y00277417*
X00580951Y00277376*
X00581031Y0027734*
X00581113Y00277311*
X00581197Y00277286*
X00581282Y00277268*
X00581369Y00277256*
X00581456Y0027725*
X00581543*
X0058163Y00277256*
X00581716Y00277268*
X00581802Y00277286*
X00581886Y00277311*
X00581968Y0027734*
X00582047Y00277376*
X00582124Y00277417*
X00582198Y00277463*
X00582269Y00277514*
X00582336Y0027757*
X00582399Y00277631*
X00582457Y00277696*
X00582511Y00277765*
X00582559Y00277837*
X00582603Y00277913*
X00582641Y00277991*
X00582674Y00278072*
X00582701Y00278155*
X00582722Y00278239*
X00582737Y00278325*
X00582746Y00278412*
X00582749Y00278499*
G54D15*
X002018Y00549441D02*
D01*
X00199369Y0054824*
X00197028Y00546873*
X00194788Y00545345*
X0019266Y00543665*
X00190654Y0054184*
X0018878Y0053988*
X00187048Y00537794*
X00185465Y00535593*
X0018404Y00533286*
X00182779Y00530885*
X00181689Y00528402*
X00180775Y0052585*
X00180041Y0052324*
X0017949Y00520584*
X00179127Y00517897*
X00178951Y00515192*
X00178965Y0051248*
X00179168Y00509776*
X00179559Y00507093*
X00180136Y00504444*
X00180897Y00501841*
X00181837Y00499298*
X00182953Y00496826*
X00184238Y00494439*
X00185686Y00492147*
X00187291Y00489961*
X00189045Y00487893*
X00190938Y00485952*
X00192963Y00484148*
X00195108Y0048249*
X00197363Y00480985*
X00199718Y00479641*
X00201825Y00478614*
X00234955Y00479089D02*
D01*
X00237352Y00480358*
X00239654Y00481791*
X0024185Y00483381*
X0024393Y00485121*
X00245883Y00487001*
X00247701Y00489013*
X00249374Y00491147*
X00250894Y00493392*
X00252254Y00495738*
X00253447Y00498173*
X00254467Y00500685*
X00255309Y00503262*
X00255969Y00505892*
X00256445Y00508562*
X00256733Y00511258*
X00256832Y00513967*
X00256742Y00516677*
X00256463Y00519375*
X00255997Y00522045*
X00255345Y00524678*
X00254512Y00527258*
X002535Y00529773*
X00252316Y00532213*
X00250964Y00534563*
X00249452Y00536814*
X00247786Y00538953*
X00245975Y00540971*
X00244028Y00542858*
X00241954Y00544604*
X00239763Y00546202*
X00237466Y00547643*
X00235074Y0054892*
X00234161Y00549352*
X00852339Y00454152D02*
X00862931Y0044338D01*
X00857379Y00454152D02*
X00867459D01*
X00862931Y0044338D02*
X00873356Y00454152D01*
X00867459D02*
X00873356D01*
X00852339D02*
X00857379D01*
X00801539D02*
X00812131Y0044338D01*
X00806579Y00454152D02*
X00816659D01*
X00812131Y0044338D02*
X00822556Y00454152D01*
X00816659D02*
X00822556D01*
X00801539D02*
X00806579D01*
X00349739Y00139869D02*
Y0026924D01*
X00176851Y00546003D02*
X00185995Y00555147D01*
X00249999D02*
X00258999Y00546003D01*
X00234749Y00555147D02*
X00249999D01*
X00185995D02*
X00201749D01*
X00176851Y00472999D02*
Y00546003D01*
Y00472999D02*
X00201249D01*
X00234499D02*
X00258999D01*
Y00546003*
G54D16*
X00168429Y0020828D02*
D01*
X00168422Y00208477*
X00168402Y00208675*
X00168367Y0020887*
X00168319Y00209062*
X00168258Y00209251*
X00168184Y00209434*
X00168097Y00209613*
X00167998Y00209784*
X00167887Y00209949*
X00167765Y00210105*
X00167632Y00210252*
X0016749Y0021039*
X00167338Y00210517*
X00167177Y00210634*
X00167009Y00210739*
X00166834Y00210832*
X00166653Y00210912*
X00166467Y0021098*
X00166277Y00211035*
X00166082Y00211076*
X00165886Y00211104*
X00165689Y00211118*
X0016549*
X00165293Y00211104*
X00165096Y00211076*
X00164902Y00211035*
X00164712Y0021098*
X00164525Y00210912*
X00164344Y00210832*
X00164169Y00210739*
X00164001Y00210634*
X00163841Y00210517*
X00163689Y0021039*
X00163547Y00210252*
X00163414Y00210105*
X00163292Y00209949*
X00163181Y00209784*
X00163082Y00209613*
X00162995Y00209434*
X00162921Y00209251*
X00162859Y00209062*
X00162811Y0020887*
X00162777Y00208675*
X00162756Y00208477*
X00162749Y0020828*
X00162756Y00208081*
X00162777Y00207884*
X00162811Y00207689*
X00162859Y00207497*
X00162921Y00207308*
X00162995Y00207124*
X00163082Y00206946*
X00163181Y00206774*
X00163292Y0020661*
X00163414Y00206454*
X00163547Y00206306*
X00163689Y00206169*
X00163841Y00206042*
X00164001Y00205925*
X00164169Y0020582*
X00164344Y00205727*
X00164525Y00205646*
X00164712Y00205578*
X00164902Y00205524*
X00165096Y00205482*
X00165293Y00205455*
X0016549Y00205441*
X00165689*
X00165886Y00205455*
X00166082Y00205482*
X00166277Y00205524*
X00166467Y00205578*
X00166653Y00205646*
X00166834Y00205727*
X00167009Y0020582*
X00167177Y00205925*
X00167338Y00206042*
X0016749Y00206169*
X00167632Y00206306*
X00167765Y00206454*
X00167887Y0020661*
X00167998Y00206774*
X00168097Y00206946*
X00168184Y00207124*
X00168258Y00207308*
X00168319Y00207497*
X00168367Y00207689*
X00168402Y00207884*
X00168422Y00208081*
X00168429Y0020828*
X00122409Y0019177D02*
X00170669D01*
X00122409D02*
Y0021336D01*
X00170669*
Y0019177D02*
Y0021336D01*
G54D17*
X00453819Y00567499D02*
Y00597999D01*
X00439319Y00567499D02*
X00453819D01*
X00439319D02*
Y00597999D01*
X00453819*
X00705749Y00459999D02*
Y00490499D01*
X00720249*
Y00459999D02*
Y00490499D01*
X00705749Y00459999D02*
X00720249D01*
X00767939Y00354089D02*
X00782439D01*
X00767939Y00323589D02*
Y00354089D01*
Y00323589D02*
X00782439D01*
Y00354089*
X00717749Y00369999D02*
X00732249D01*
X00717749Y00339499D02*
Y00369999D01*
Y00339499D02*
X00732249D01*
Y00369999*
X00604749Y00347999D02*
X00619249D01*
Y00378499*
X00604749D02*
X00619249D01*
X00604749Y00347999D02*
Y00378499D01*
X00442209Y00197219D02*
Y00211719D01*
X00411709D02*
X00442209D01*
X00411709Y00197219D02*
Y00211719D01*
Y00197219D02*
X00442209D01*
X00842869Y00354089D02*
X00857369D01*
X00842869Y00323589D02*
Y00354089D01*
Y00323589D02*
X00857369D01*
Y00354089*
X00588249Y00458799D02*
X00602749D01*
Y00489299*
X00588249D02*
X00602749D01*
X00588249Y00458799D02*
Y00489299D01*
X00552349Y00597999D02*
X00566849D01*
X00552349Y00567499D02*
Y00597999D01*
Y00567499D02*
X00566849D01*
Y00597999*
X00326749Y00472999D02*
X00341249D01*
X00326749Y00442499D02*
Y00472999D01*
Y00442499D02*
X00341249D01*
Y00472999*
X00332749Y00416999D02*
X0034725D01*
X00332749Y00386499D02*
Y00416999D01*
Y00386499D02*
X0034725D01*
Y00416999*
X00327999Y00300749D02*
Y00315249D01*
Y00300749D02*
X00358499D01*
Y00315249*
X00327999D02*
X00358499D01*
X00974989Y00363189D02*
Y00511879D01*
X00039449Y00462999D02*
Y00561689D01*
G54D18*
X00506999Y00230999D02*
Y00280999D01*
X00538999Y00230999D02*
Y00280999D01*
X00511499Y00123999D02*
Y00153999D01*
Y00123999D02*
Y00153999D01*
X00536499Y00123999D02*
Y00153999D01*
Y00123999D02*
Y00153999D01*
X00843449Y0042545D02*
X00847259D01*
X00843449Y00470916D02*
X00847005D01*
X00877993Y00425704D02*
X00881549D01*
X00877993Y00470916D02*
X00881549D01*
X00792649Y0042545D02*
X00796459D01*
X00792649Y00470916D02*
X00796205D01*
X00827193Y00425704D02*
X00830749D01*
X00827193Y00470916D02*
X00830749D01*
X00147999Y00354999D02*
Y00386749D01*
X00133999Y00354999D02*
X00147999D01*
X00133999D02*
Y00386749D01*
X00147999*
X00218279Y00242583D02*
Y00274333D01*
X00232279*
Y00242583D02*
Y00274333D01*
X00218279Y00242583D02*
X00232279D01*
X00186529D02*
Y00274333D01*
X00200529*
Y00242583D02*
Y00274333D01*
X00186529Y00242583D02*
X00200529D01*
X00466999Y00314249D02*
Y00345999D01*
X00480999*
Y00314249D02*
Y00345999D01*
X00466999Y00314249D02*
X00480999D01*
X00582999Y00133999D02*
X00614749D01*
X00582999D02*
Y00147999D01*
X00614749*
Y00133999D02*
Y00147999D01*
X00581249Y00333999D02*
X00612999D01*
Y00319999D02*
Y00333999D01*
X00581249Y00319999D02*
X00612999D01*
X00581249D02*
Y00333999D01*
X00762Y00112999D02*
Y00144749D01*
X00747999Y00112999D02*
X00762D01*
X00747999D02*
Y00144749D01*
X00762*
X00743999Y00247999D02*
Y00279749D01*
X00729999Y00247999D02*
X00743999D01*
X00729999D02*
Y00279749D01*
X00743999*
X00483999Y00181999D02*
Y00213749D01*
X00469999Y00181999D02*
X00483999D01*
X00469999D02*
Y00213749D01*
X00483999*
X00809829Y00164719D02*
Y00196469D01*
X00823829*
Y00164719D02*
Y00196469D01*
X00809829Y00164719D02*
X00823829D01*
X00875759Y00240779D02*
X00907509D01*
X00875759D02*
Y00254779D01*
X00907509*
Y00240779D02*
Y00254779D01*
X00974959Y00172089D02*
Y00203839D01*
X00960959Y00172089D02*
X00974959D01*
X00960959D02*
Y00203839D01*
X00974959*
X00960959Y00234569D02*
Y00266319D01*
X00974959*
Y00234569D02*
Y00266319D01*
X00960959Y00234569D02*
X00974959D01*
X00922249Y00134999D02*
X00953999D01*
Y00120999D02*
Y00134999D01*
X00922249Y00120999D02*
X00953999D01*
X00922249D02*
Y00134999D01*
X00406239Y00242583D02*
Y00274333D01*
X00420239*
Y00242583D02*
Y00274333D01*
X00406239Y00242583D02*
X00420239D01*
X00437559D02*
Y00274333D01*
X00451559*
Y00242583D02*
Y00274333D01*
X00437559Y00242583D02*
X00451559D01*
X00186529Y00127759D02*
Y00159509D01*
X00200529*
Y00127759D02*
Y00159509D01*
X00186529Y00127759D02*
X00200529D01*
X00218279D02*
Y00159509D01*
X00232279*
Y00127759D02*
Y00159509D01*
X00218279Y00127759D02*
X00232279D01*
X00406239D02*
Y00159509D01*
X00420239*
Y00127759D02*
Y00159509D01*
X00406239Y00127759D02*
X00420239D01*
X00437559D02*
Y00159509D01*
X00451559*
Y00127759D02*
Y00159509D01*
X00437559Y00127759D02*
X00451559D01*
X00282999Y00329999D02*
X00314749D01*
X00282999D02*
Y00343999D01*
X00314749*
Y00329999D02*
Y00343999D01*
X00268Y00430999D02*
X00299749D01*
X00268D02*
Y00444999D01*
X00299749*
Y00430999D02*
Y00444999D01*
G54D19*
X00881549Y00425704D02*
Y00470916D01*
X00843449Y0042545D02*
Y00470916D01*
X00830749Y00425704D02*
Y00470916D01*
X00792649Y0042545D02*
Y00470916D01*
G54D20*
X00174479Y00351567D02*
X00220199D01*
Y00392684*
X00174479D02*
X00220199D01*
X00174479Y00351567D02*
Y00392684D01*
G54D21*
X00345992Y00663991D02*
X00340995Y00668989D01*
X00330997*
X00325999Y00663991*
Y00643997*
X00330997Y00638999*
X00340995*
X00345992Y00643997*
X00355989Y00638999D02*
Y00658993D01*
X00365986Y00668989*
X00375983Y00658993*
Y00638999*
Y00653994*
X00355989*
X00405973Y00663991D02*
X00400975Y00668989D01*
X00390978*
X0038598Y00663991*
Y00658993*
X00390978Y00653994*
X00400975*
X00405973Y00648996*
Y00643997*
X00400975Y00638999*
X00390978*
X0038598Y00643997*
X00420968Y00663991D02*
Y00658993D01*
X0041597*
X00425967*
X00420968*
Y00643997*
X00425967Y00638999*
X0044596D02*
X00455957D01*
X00460955Y00643997*
Y00653994*
X00455957Y00658993*
X0044596*
X00440962Y00653994*
Y00643997*
X0044596Y00638999*
X00470952D02*
Y00668989D01*
X00480949Y00658993*
X00490946Y00668989*
Y00638999*
X00505941D02*
X00515937D01*
X00520936Y00643997*
Y00653994*
X00515937Y00658993*
X00505941*
X00500942Y00653994*
Y00643997*
X00505941Y00638999*
X00550926Y00668989D02*
Y00638999D01*
X00535931*
X00530933Y00643997*
Y00653994*
X00535931Y00658993*
X00550926*
X00560923Y00668989D02*
Y00638999D01*
X00575918*
X00580917Y00643997*
Y00648996*
Y00653994*
X00575918Y00658993*
X00560923*
X00590913D02*
Y00643997D01*
X00595912Y00638999*
X00610907*
Y00658993*
X00620904Y00638999D02*
X00635899D01*
X00640897Y00643997*
X00635899Y00648996*
X00625902*
X00620904Y00653994*
X00625902Y00658993*
X00640897*
X00458999Y00054989D02*
X00478992D01*
X00468996*
Y00024999*
X00508983Y00054989D02*
X00488989D01*
Y00024999*
X00508983*
X00488989Y00039994D02*
X00498986D01*
X0051898Y00024999D02*
Y00054989D01*
X00538973Y00024999*
Y00054989*
X00568963Y00049991D02*
X00563965Y00054989D01*
X00553968*
X0054897Y00049991*
Y00044993*
X00553968Y00039994*
X00563965*
X00568963Y00034996*
Y00029997*
X00563965Y00024999*
X00553968*
X0054897Y00029997*
X0057896Y00054989D02*
X00588957D01*
X00583959*
Y00024999*
X0057896*
X00588957*
X00603952Y00054989D02*
Y00024999D01*
X00618947*
X00623946Y00029997*
Y00034996*
X00618947Y00039994*
X00603952*
X00618947*
X00623946Y00044993*
Y00049991*
X00618947Y00054989*
X00603952*
X00633942Y00024999D02*
Y00029997D01*
X00638941*
Y00024999*
X00633942*
X00658934D02*
Y00054989D01*
X00673929*
X00678928Y00049991*
Y00039994*
X00673929Y00034996*
X00658934*
X00668931D02*
X00678928Y00024999D01*
X00688925Y00054989D02*
Y00029997D01*
X00693923Y00024999*
X0070392*
X00708918Y00029997*
Y00054989*
G54D22*
X00905999Y00536999D02*
Y00551994D01*
X00913497*
X00915996Y00549495*
Y00544497*
X00913497Y00541997*
X00905999*
X00910997D02*
X00915996Y00536999D01*
X00920994Y00551994D02*
X00930991Y00536999D01*
Y00551994D02*
X00920994Y00536999D01*
X00904999Y00575994D02*
X00914996D01*
X00909997*
Y00560999*
X00919994Y00575994D02*
X00929991Y00560999D01*
Y00575994D02*
X00919994Y00560999D01*
X00914996Y00599495D02*
X00912497Y00601994D01*
X00907498*
X00904999Y00599495*
Y00589498*
X00907498Y00586999*
X00912497*
X00914996Y00589498*
Y00594497*
X00909997*
X00919994Y00586999D02*
Y00601994D01*
X00929991Y00586999*
Y00601994*
X00934989D02*
Y00586999D01*
X00942487*
X00944986Y00589498*
Y00599495*
X00942487Y00601994*
X00934989*
X00905999Y00614999D02*
Y00629994D01*
X00913497*
X00915996Y00627495*
Y00622497*
X00913497Y00619997*
X00905999*
X00910997D02*
X00915996Y00614999D01*
X00930991Y00627495D02*
X00928492Y00629994D01*
X00923493*
X00920994Y00627495*
Y00624996*
X00923493Y00622497*
X00928492*
X00930991Y00619997*
Y00617498*
X00928492Y00614999*
X00923493*
X00920994Y00617498*
X0093599Y00622497D02*
X00945986D01*
X00960981Y00614999D02*
X00950984D01*
X00960981Y00624996*
Y00627495*
X00958482Y00629994*
X00953484*
X00950984Y00627495*
X0096598D02*
X00968479Y00629994D01*
X00973477*
X00975976Y00627495*
Y00624996*
X00973477Y00622497*
X00970978*
X00973477*
X00975976Y00619997*
Y00617498*
X00973477Y00614999*
X00968479*
X0096598Y00617498*
X00990972Y00614999D02*
X00980975D01*
X00990972Y00624996*
Y00627495*
X00988472Y00629994*
X00983474*
X00980975Y00627495*
X00022999Y00140999D02*
Y00155994D01*
X00030497*
X00032996Y00153495*
Y00148497*
X00030497Y00145997*
X00022999*
X00027997D02*
X00032996Y00140999D01*
X00047991Y00153495D02*
X00045492Y00155994D01*
X00040493*
X00037994Y00153495*
Y00150996*
X00040493Y00148497*
X00045492*
X00047991Y00145997*
Y00143498*
X00045492Y00140999*
X00040493*
X00037994Y00143498*
X00052989Y00148497D02*
X00062986D01*
X00075482Y00140999D02*
Y00155994D01*
X00067984Y00148497*
X00077981*
X0008298Y00153495D02*
X00085479Y00155994D01*
X00090477*
X00092976Y00153495*
Y00150996*
X00090477Y00148497*
X00092976Y00145997*
Y00143498*
X00090477Y00140999*
X00085479*
X0008298Y00143498*
Y00145997*
X00085479Y00148497*
X0008298Y00150996*
Y00153495*
X00085479Y00148497D02*
X00090477D01*
X00107971Y00155994D02*
X00097975D01*
Y00148497*
X00102973Y00150996*
X00105472*
X00107971Y00148497*
Y00143498*
X00105472Y00140999*
X00100474*
X00097975Y00143498*
X00030996Y00610495D02*
X00028497Y00612994D01*
X00023498*
X00020999Y00610495*
Y00600498*
X00023498Y00597999*
X00028497*
X00030996Y00600498*
Y00605497*
X00025997*
X00035994Y00597999D02*
Y00612994D01*
X00045991Y00597999*
Y00612994*
X00050989D02*
Y00597999D01*
X00058487*
X00060986Y00600498*
Y00610495*
X00058487Y00612994*
X00050989*
X00019999Y00632497D02*
X00029996D01*
X00024997Y00637495D02*
Y00627498D01*
X00044991Y00639994D02*
X00039993Y00637495D01*
X00034994Y00632497*
Y00627498*
X00037493Y00624999*
X00042492*
X00044991Y00627498*
Y00629997*
X00042492Y00632497*
X00034994*
X00049989Y00624999D02*
Y00627498D01*
X00052489*
Y00624999*
X00049989*
X00062485D02*
Y00627498D01*
X00064984*
Y00624999*
X00062485*
X00074981Y00632497D02*
X00084978D01*
X0007998Y00637495D02*
Y00627498D01*
X00089976Y00637495D02*
X00092476Y00639994D01*
X00097474*
X00099973Y00637495*
Y00634996*
X00097474Y00632497*
X00094975*
X00097474*
X00099973Y00629997*
Y00627498*
X00097474Y00624999*
X00092476*
X00089976Y00627498*
X00114968Y00639994D02*
X0010997Y00637495D01*
X00104971Y00632497*
Y00627498*
X00107471Y00624999*
X00112469*
X00114968Y00627498*
Y00629997*
X00112469Y00632497*
X00104971*
X00119967Y00639994D02*
Y00629997D01*
X00124965Y00624999*
X00129963Y00629997*
Y00639994*
X00056999Y00048994D02*
X00066996D01*
Y00046495*
X00056999Y00036498*
Y00033999*
X00066996*
X00055999Y00073994D02*
Y00071495D01*
X00060997Y00066497*
X00065996Y00071495*
Y00073994*
X00060997Y00066497D02*
Y00058999D01*
X00055999Y00100994D02*
Y00085999D01*
X00063497*
X00065996Y00088498*
Y00090997*
X00063497Y00093497*
X00055999*
X00063497*
X00065996Y00095996*
Y00098495*
X00063497Y00100994*
X00055999*
Y00110999D02*
Y00120996D01*
X00060997Y00125994*
X00065996Y00120996*
Y00110999*
Y00118497*
X00055999*
X00884996Y00302495D02*
X00882497Y00304994D01*
X00877498*
X00874999Y00302495*
Y00299996*
X00877498Y00297497*
X00882497*
X00884996Y00294997*
Y00292498*
X00882497Y00289999*
X00877498*
X00874999Y00292498*
X00889994Y00304994D02*
X00899991D01*
X00894993*
Y00289999*
X00914986D02*
X00904989D01*
X00914986Y00299996*
Y00302495*
X00912487Y00304994*
X00907488*
X00904989Y00302495*
X00804996Y00301495D02*
X00802497Y00303994D01*
X00797498*
X00794999Y00301495*
Y00298996*
X00797498Y00296497*
X00802497*
X00804996Y00293997*
Y00291498*
X00802497Y00288999*
X00797498*
X00794999Y00291498*
X00809994Y00303994D02*
X00819991D01*
X00814993*
Y00288999*
X00824989D02*
X00829988D01*
X00827488*
Y00303994*
X00824989Y00301495*
X00269999Y00568495D02*
X00272498Y00570994D01*
X00277497*
X00279996Y00568495*
Y00565996*
X00277497Y00563497*
X00274997*
X00277497*
X00279996Y00560997*
Y00558498*
X00277497Y00555999*
X00272498*
X00269999Y00558498*
X00284994Y00570994D02*
Y00560997D01*
X00289992Y00555999*
X00294991Y00560997*
Y00570994*
X00299989Y00568495D02*
X00302488Y00570994D01*
X00307487*
X00309986Y00568495*
Y00565996*
X00307487Y00563497*
X00304988*
X00307487*
X00309986Y00560997*
Y00558498*
X00307487Y00555999*
X00302488*
X00299989Y00558498*
X00717497Y00422999D02*
Y00437994D01*
X00709999Y00430497*
X00719996*
X00724994Y00435495D02*
X00727493Y00437994D01*
X00732492*
X00734991Y00435495*
Y00432996*
X00732492Y00430497*
X00734991Y00427997*
Y00425498*
X00732492Y00422999*
X00727493*
X00724994Y00425498*
Y00427997*
X00727493Y00430497*
X00724994Y00432996*
Y00435495*
X00727493Y00430497D02*
X00732492D01*
X00749986Y00437994D02*
X00739989D01*
Y00430497*
X00744988Y00432996*
X00747487*
X00749986Y00430497*
Y00425498*
X00747487Y00422999*
X00742488*
X00739989Y00425498*
X00754984Y00437994D02*
X00764981D01*
X00759983*
Y00422999*
X0076998Y00437994D02*
X00779976Y00422999D01*
Y00437994D02*
X0076998Y00422999D01*
X00603497Y00421999D02*
Y00436994D01*
X00595999Y00429497*
X00605996*
X00610994Y00434495D02*
X00613493Y00436994D01*
X00618492*
X00620991Y00434495*
Y00431996*
X00618492Y00429497*
X00620991Y00426997*
Y00424498*
X00618492Y00421999*
X00613493*
X00610994Y00424498*
Y00426997*
X00613493Y00429497*
X00610994Y00431996*
Y00434495*
X00613493Y00429497D02*
X00618492D01*
X00635986Y00436994D02*
X00625989D01*
Y00429497*
X00630988Y00431996*
X00633487*
X00635986Y00429497*
Y00424498*
X00633487Y00421999*
X00628488*
X00625989Y00424498*
X00640984Y00421999D02*
Y00436994D01*
X00648482*
X00650981Y00434495*
Y00429497*
X00648482Y00426997*
X00640984*
X00645983D02*
X00650981Y00421999D01*
X0065598Y00436994D02*
X00665976Y00421999D01*
Y00436994D02*
X0065598Y00421999D01*
X00572996Y00524999D02*
X00562999D01*
X00572996Y00534996*
Y00537495*
X00570497Y00539994*
X00565498*
X00562999Y00537495*
X00577994D02*
X00580493Y00539994D01*
X00585492*
X00587991Y00537495*
Y00534996*
X00585492Y00532497*
X00582993*
X00585492*
X00587991Y00529997*
Y00527498*
X00585492Y00524999*
X00580493*
X00577994Y00527498*
X00602986Y00524999D02*
X00592989D01*
X00602986Y00534996*
Y00537495*
X00600487Y00539994*
X00595489*
X00592989Y00537495*
X00607984Y00539994D02*
X00617982D01*
X00612983*
Y00524999*
X0062298Y00539994D02*
X00632976Y00524999D01*
Y00539994D02*
X0062298Y00524999D01*
X00459996D02*
X00449999D01*
X00459996Y00534996*
Y00537495*
X00457497Y00539994*
X00452498*
X00449999Y00537495*
X00464994D02*
X00467493Y00539994D01*
X00472492*
X00474991Y00537495*
Y00534996*
X00472492Y00532497*
X00469993*
X00472492*
X00474991Y00529997*
Y00527498*
X00472492Y00524999*
X00467493*
X00464994Y00527498*
X00489986Y00524999D02*
X00479989D01*
X00489986Y00534996*
Y00537495*
X00487487Y00539994*
X00482489*
X00479989Y00537495*
X00494984Y00524999D02*
Y00539994D01*
X00502482*
X00504981Y00537495*
Y00532497*
X00502482Y00529997*
X00494984*
X00499983D02*
X00504981Y00524999D01*
X0050998Y00539994D02*
X00519976Y00524999D01*
Y00539994D02*
X0050998Y00524999D01*
G54D23*
X00296653Y00514285D03*
X00819874Y00333284D03*
X00895094Y00333375D03*
G54D24*
X00282792Y00514285D03*
X00748534Y00479514D03*
X00806014Y00333284D03*
X00881234Y00333375D03*
X00636774Y00479514D03*
X00588174Y00574954D03*
X00475144Y00576014D03*
G54D25*
X00289763Y00518221D03*
X00741563Y00475577D03*
X00812985Y00337221D03*
X00888205Y00337312D03*
X00629803Y00475577D03*
X00595145Y00578891D03*
X00482115Y00579951D03*
G54D26*
X00734674Y00479514D03*
X00622914D03*
X00602034Y00574954D03*
X00489004Y00576014D03*
M02*